<svg width="24" height="25" viewBox="0 0 24 25" fill="none" xmlns="http://www.w3.org/2000/svg">
<path d="M10.5 21.5737C11.3284 21.5737 12 20.9021 12 20.0737C12 19.2452 11.3284 18.5737 10.5 18.5737C9.67157 18.5737 9 19.2452 9 20.0737C9 20.9021 9.67157 21.5737 10.5 21.5737Z" fill="#6BB244"/>
<path d="M17.5 21.5737C18.3284 21.5737 19 20.9021 19 20.0737C19 19.2452 18.3284 18.5737 17.5 18.5737C16.6716 18.5737 16 19.2452 16 20.0737C16 20.9021 16.6716 21.5737 17.5 21.5737Z" fill="#6BB244"/>
<path d="M12.9998 13.5737H14.9998V10.5837H17.9898V8.5837H14.9998V5.6037H12.9998V8.5837H10.0098V10.5837H12.9998V13.5737Z" fill="#6BB244"/>
<path d="M10 17.5737H18C18.2014 17.5731 18.398 17.5117 18.564 17.3975C18.7299 17.2833 18.8575 17.1216 18.93 16.9337L21.76 9.57367H19.62L17.31 15.5737H10.67L6.18 4.80367C6.02776 4.43874 5.77077 4.12711 5.44149 3.90819C5.11221 3.68926 4.72542 3.57285 4.33 3.57367H2V5.57367H4.33L9.08 16.9537C9.15502 17.1363 9.28242 17.2926 9.44614 17.403C9.60986 17.5133 9.80257 17.5727 10 17.5737Z" fill="#6BB244"/>
</svg>
