<svg width="1513" height="345" viewBox="0 0 1513 345" fill="none" xmlns="http://www.w3.org/2000/svg">
<g clip-path="url(#clip0_454_8594)">
<rect width="1513" height="345" fill="#102018"/>
<path fill-rule="evenodd" clip-rule="evenodd" d="M106.839 32.3746C108.639 32.1637 110.468 31.947 112.327 31.7244C114.154 31.5056 120.387 30.7558 121.241 30.6533C169.656 24.8435 199.953 22.6622 252.167 22.6622C303.967 22.6622 329.642 24.6399 376.377 30.6401C381.197 31.2589 385.804 31.8364 390.247 32.3746H421.643C408.98 31.192 395.725 29.6372 380.123 27.6342C332.296 21.4939 305.435 19.4247 252.167 19.4247C198.577 19.4247 167.16 21.6867 117.709 27.6209C116.848 27.7242 110.62 28.4734 108.801 28.6912C96.32 30.1858 85.2963 31.4025 74.8906 32.3746H106.839ZM106.839 0C66.8621 4.68128 40.7336 6.47491 0 6.47491L0 3.23746C28.9685 3.23746 50.1882 2.30772 74.8906 0L106.839 0ZM390.247 0C429.886 4.80185 456.433 6.47491 504.333 6.47491V3.23746C469.825 3.23746 446.912 2.3598 421.643 0L390.247 0ZM0 22.6622C42.5683 22.6622 69.1861 20.7034 112.327 15.5371C114.154 15.3183 120.387 14.5686 121.241 14.4661C169.656 8.65624 199.953 6.47491 252.167 6.47491C303.967 6.47491 329.642 8.45263 376.377 14.4528C424.204 20.5931 451.065 22.6622 504.333 22.6622V19.4247C452.533 19.4247 426.858 17.447 380.123 11.4469C332.296 5.30657 305.435 3.23746 252.167 3.23746C198.577 3.23746 167.16 5.49945 117.709 11.4336C116.848 11.5369 110.62 12.2861 108.801 12.5039C66.6906 17.5467 41.1713 19.4247 0 19.4247L0 22.6622Z" fill="#EEF5E2" fill-opacity="0.02"/>
<path fill-rule="evenodd" clip-rule="evenodd" d="M611.172 32.3746C612.972 32.1637 614.801 31.947 616.66 31.7244C618.487 31.5056 624.72 30.7558 625.574 30.6533C673.989 24.8435 704.286 22.6622 756.5 22.6622C808.3 22.6622 833.975 24.6399 880.71 30.6401C885.53 31.2589 890.137 31.8364 894.58 32.3746H925.976C913.313 31.192 900.058 29.6372 884.456 27.6342C836.629 21.4939 809.768 19.4247 756.5 19.4247C702.91 19.4247 671.493 21.6867 622.042 27.6209C621.181 27.7242 614.953 28.4734 613.134 28.6912C600.653 30.1858 589.629 31.4025 579.224 32.3746H611.172ZM611.172 0C571.195 4.68128 545.067 6.47491 504.333 6.47491L504.333 3.23746C533.301 3.23746 554.521 2.30772 579.224 0L611.172 0ZM894.58 0C934.219 4.80185 960.766 6.47491 1008.67 6.47491V3.23746C974.158 3.23746 951.245 2.3598 925.976 0L894.58 0ZM504.333 22.6622C546.901 22.6622 573.519 20.7034 616.66 15.5371C618.487 15.3183 624.72 14.5686 625.574 14.4661C673.989 8.65624 704.286 6.47491 756.5 6.47491C808.3 6.47491 833.975 8.45263 880.71 14.4528C928.537 20.5931 955.398 22.6622 1008.67 22.6622V19.4247C956.866 19.4247 931.191 17.447 884.456 11.4469C836.629 5.30657 809.768 3.23746 756.5 3.23746C702.91 3.23746 671.493 5.49945 622.042 11.4336C621.181 11.5369 614.953 12.2861 613.134 12.5039C571.024 17.5467 545.504 19.4247 504.333 19.4247L504.333 22.6622Z" fill="#EEF5E2" fill-opacity="0.02"/>
<path fill-rule="evenodd" clip-rule="evenodd" d="M1115.51 32.3746C1117.31 32.1637 1119.13 31.947 1120.99 31.7244C1122.82 31.5056 1129.05 30.7558 1129.91 30.6533C1178.32 24.8435 1208.62 22.6622 1260.83 22.6622C1312.63 22.6622 1338.31 24.6399 1385.04 30.6401C1389.86 31.2589 1394.47 31.8364 1398.91 32.3746H1430.31C1417.65 31.192 1404.39 29.6372 1388.79 27.6342C1340.96 21.4939 1314.1 19.4247 1260.83 19.4247C1207.24 19.4247 1175.83 21.6867 1126.38 27.6209C1125.52 27.7242 1119.29 28.4734 1117.47 28.6912C1104.99 30.1858 1093.96 31.4025 1083.56 32.3746H1115.51ZM1115.51 0C1075.53 4.68128 1049.4 6.47491 1008.67 6.47491L1008.67 3.23746C1037.64 3.23746 1058.86 2.30772 1083.56 0L1115.51 0ZM1398.91 0C1438.55 4.80185 1465.1 6.47491 1513 6.47491V3.23746C1478.49 3.23746 1455.58 2.3598 1430.31 0L1398.91 0ZM1008.67 22.6622C1051.24 22.6622 1077.85 20.7034 1120.99 15.5371C1122.82 15.3183 1129.05 14.5686 1129.91 14.4661C1178.32 8.65624 1208.62 6.47491 1260.83 6.47491C1312.63 6.47491 1338.31 8.45263 1385.04 14.4528C1432.87 20.5931 1459.73 22.6622 1513 22.6622V19.4247C1461.2 19.4247 1435.53 17.447 1388.79 11.4469C1340.96 5.30657 1314.1 3.23746 1260.83 3.23746C1207.24 3.23746 1175.83 5.49945 1126.38 11.4336C1125.52 11.5369 1119.29 12.2861 1117.47 12.5039C1075.36 17.5467 1049.84 19.4247 1008.67 19.4247L1008.67 22.6622Z" fill="#EEF5E2" fill-opacity="0.02"/>
<path fill-rule="evenodd" clip-rule="evenodd" d="M106.839 64.7491C108.639 64.5383 110.468 64.3216 112.327 64.0989C114.154 63.8802 120.387 63.1304 121.241 63.0279C169.656 57.2181 199.953 55.0368 252.167 55.0368C303.967 55.0368 329.642 57.0145 376.377 63.0146C381.197 63.6335 385.804 64.211 390.247 64.7491H421.643C408.98 63.5666 395.725 62.0118 380.123 60.0087C332.296 53.8684 305.435 51.7993 252.167 51.7993C198.577 51.7993 167.16 54.0613 117.709 59.9955C116.848 60.0987 110.62 60.8479 108.801 61.0657C96.32 62.5604 85.2963 63.777 74.8906 64.7491H106.839ZM106.839 32.3746C66.8621 37.0559 40.7336 38.8495 0 38.8495L0 35.612C28.9685 35.612 50.1882 34.6823 74.8906 32.3746H106.839ZM390.247 32.3746C429.886 37.1764 456.433 38.8495 504.333 38.8495V35.612C469.825 35.612 446.912 34.7344 421.643 32.3746L390.247 32.3746ZM0 55.0368C42.5683 55.0368 69.1861 53.0779 112.327 47.9117C114.154 47.6929 120.387 46.9431 121.241 46.8406C169.656 41.0308 199.953 38.8495 252.167 38.8495C303.967 38.8495 329.642 40.8272 376.377 46.8274C424.204 52.9677 451.065 55.0368 504.333 55.0368V51.7993C452.533 51.7993 426.858 49.8216 380.123 43.8215C332.296 37.6811 305.435 35.612 252.167 35.612C198.577 35.612 167.16 37.874 117.709 43.8082C116.848 43.9115 110.62 44.6607 108.801 44.8784C66.6906 49.9213 41.1713 51.7993 0 51.7993L0 55.0368Z" fill="#EEF5E2" fill-opacity="0.02"/>
<path fill-rule="evenodd" clip-rule="evenodd" d="M611.172 64.7492C612.972 64.5383 614.801 64.3216 616.66 64.099C618.487 63.8802 624.72 63.1304 625.574 63.0279C673.989 57.2181 704.286 55.0368 756.5 55.0368C808.3 55.0368 833.975 57.0145 880.71 63.0147C885.53 63.6335 890.137 64.211 894.58 64.7492H925.976C913.313 63.5666 900.058 62.0118 884.456 60.0087C836.629 53.8684 809.768 51.7993 756.5 51.7993C702.91 51.7993 671.493 54.0613 622.042 59.9955C621.181 60.0988 614.953 60.848 613.134 61.0657C600.653 62.5604 589.629 63.777 579.224 64.7492H611.172ZM611.172 32.3746C571.195 37.0559 545.067 38.8495 504.333 38.8495L504.333 35.612C533.301 35.612 554.521 34.6823 579.224 32.3746H611.172ZM894.58 32.3746C934.219 37.1764 960.766 38.8495 1008.67 38.8495V35.612C974.158 35.612 951.245 34.7344 925.976 32.3746L894.58 32.3746ZM504.333 55.0368C546.901 55.0368 573.519 53.0779 616.66 47.9117C618.487 47.6929 624.72 46.9431 625.574 46.8406C673.989 41.0308 704.286 38.8495 756.5 38.8495C808.3 38.8495 833.975 40.8272 880.71 46.8274C928.537 52.9677 955.398 55.0368 1008.67 55.0368V51.7993C956.866 51.7993 931.191 49.8216 884.456 43.8215C836.629 37.6812 809.768 35.612 756.5 35.612C702.91 35.612 671.493 37.874 622.042 43.8082C621.181 43.9115 614.953 44.6607 613.134 44.8785C571.024 49.9213 545.504 51.7993 504.333 51.7993L504.333 55.0368Z" fill="#EEF5E2" fill-opacity="0.02"/>
<path fill-rule="evenodd" clip-rule="evenodd" d="M1115.51 64.7492C1117.31 64.5383 1119.13 64.3216 1120.99 64.099C1122.82 63.8802 1129.05 63.1304 1129.91 63.0279C1178.32 57.2181 1208.62 55.0368 1260.83 55.0368C1312.63 55.0368 1338.31 57.0145 1385.04 63.0147C1389.86 63.6335 1394.47 64.211 1398.91 64.7492H1430.31C1417.65 63.5666 1404.39 62.0118 1388.79 60.0087C1340.96 53.8684 1314.1 51.7993 1260.83 51.7993C1207.24 51.7993 1175.83 54.0613 1126.38 59.9955C1125.52 60.0988 1119.29 60.848 1117.47 61.0657C1104.99 62.5604 1093.96 63.777 1083.56 64.7492H1115.51ZM1115.51 32.3746C1075.53 37.0559 1049.4 38.8495 1008.67 38.8495L1008.67 35.612C1037.64 35.612 1058.86 34.6823 1083.56 32.3746H1115.51ZM1398.91 32.3746C1438.55 37.1764 1465.1 38.8495 1513 38.8495V35.612C1478.49 35.612 1455.58 34.7344 1430.31 32.3746L1398.91 32.3746ZM1008.67 55.0368C1051.24 55.0368 1077.85 53.0779 1120.99 47.9117C1122.82 47.6929 1129.05 46.9431 1129.91 46.8406C1178.32 41.0308 1208.62 38.8495 1260.83 38.8495C1312.63 38.8495 1338.31 40.8272 1385.04 46.8274C1432.87 52.9677 1459.73 55.0368 1513 55.0368V51.7993C1461.2 51.7993 1435.53 49.8216 1388.79 43.8215C1340.96 37.6812 1314.1 35.612 1260.83 35.612C1207.24 35.612 1175.83 37.874 1126.38 43.8082C1125.52 43.9115 1119.29 44.6607 1117.47 44.8785C1075.36 49.9213 1049.84 51.7993 1008.67 51.7993L1008.67 55.0368Z" fill="#EEF5E2" fill-opacity="0.02"/>
<path fill-rule="evenodd" clip-rule="evenodd" d="M106.839 97.1237C108.639 96.9129 110.468 96.6962 112.327 96.4735C114.154 96.2547 120.387 95.505 121.241 95.4025C169.656 89.5927 199.953 87.4113 252.167 87.4113C303.967 87.4113 329.642 89.3891 376.377 95.3892C381.197 96.008 385.804 96.5855 390.247 97.1237H421.643C408.98 95.9412 395.725 94.3864 380.123 92.3833C332.296 86.243 305.435 84.1739 252.167 84.1739C198.577 84.1739 167.16 86.4359 117.709 92.37C116.848 92.4733 110.62 93.2225 108.801 93.4403C96.32 94.935 85.2963 96.1516 74.8906 97.1237H106.839ZM106.839 64.7491C66.8621 69.4304 40.7336 71.2241 0 71.2241L0 67.9866C28.9685 67.9866 50.1882 67.0569 74.8906 64.7491H106.839ZM390.247 64.7491C429.886 69.551 456.433 71.2241 504.333 71.2241V67.9866C469.825 67.9866 446.912 67.1089 421.643 64.7491L390.247 64.7491ZM0 87.4113C42.5683 87.4113 69.1861 85.4525 112.327 80.2862C114.154 80.0674 120.387 79.3177 121.241 79.2152C169.656 73.4054 199.953 71.2241 252.167 71.2241C303.967 71.2241 329.642 73.2018 376.377 79.2019C424.204 85.3422 451.065 87.4113 504.333 87.4113V84.1739C452.533 84.1739 426.858 82.1962 380.123 76.196C332.296 70.0557 305.435 67.9866 252.167 67.9866C198.577 67.9866 167.16 70.2486 117.709 76.1828C116.848 76.286 110.62 77.0352 108.801 77.253C66.6906 82.2959 41.1713 84.1739 0 84.1739L0 87.4113Z" fill="#EEF5E2" fill-opacity="0.02"/>
<path fill-rule="evenodd" clip-rule="evenodd" d="M611.172 97.1237C612.972 96.9129 614.801 96.6962 616.66 96.4735C618.487 96.2548 624.72 95.505 625.574 95.4025C673.989 89.5927 704.286 87.4114 756.5 87.4114C808.3 87.4114 833.975 89.3891 880.71 95.3892C885.53 96.0081 890.137 96.5856 894.58 97.1237H925.976C913.313 95.9412 900.058 94.3864 884.456 92.3833C836.629 86.243 809.768 84.1739 756.5 84.1739C702.91 84.1739 671.493 86.4359 622.042 92.3701C621.181 92.4733 614.953 93.2225 613.134 93.4403C600.653 94.935 589.629 96.1516 579.224 97.1237H611.172ZM611.172 64.7492C571.195 69.4304 545.067 71.2241 504.333 71.2241L504.333 67.9866C533.301 67.9866 554.521 67.0569 579.224 64.7492H611.172ZM894.58 64.7492C934.219 69.551 960.766 71.2241 1008.67 71.2241V67.9866C974.158 67.9866 951.245 67.109 925.976 64.7492L894.58 64.7492ZM504.333 87.4114C546.901 87.4114 573.519 85.4525 616.66 80.2863C618.487 80.0675 624.72 79.3177 625.574 79.2152C673.989 73.4054 704.286 71.2241 756.5 71.2241C808.3 71.2241 833.975 73.2018 880.71 79.2019C928.537 85.3423 955.398 87.4114 1008.67 87.4114V84.1739C956.866 84.1739 931.191 82.1962 884.456 76.196C836.629 70.0557 809.768 67.9866 756.5 67.9866C702.91 67.9866 671.493 70.2486 622.042 76.1828C621.181 76.286 614.953 77.0353 613.134 77.253C571.024 82.2959 545.504 84.1739 504.333 84.1739L504.333 87.4114Z" fill="#EEF5E2" fill-opacity="0.02"/>
<path fill-rule="evenodd" clip-rule="evenodd" d="M1115.51 97.1237C1117.31 96.9129 1119.13 96.6962 1120.99 96.4735C1122.82 96.2548 1129.05 95.505 1129.91 95.4025C1178.32 89.5927 1208.62 87.4114 1260.83 87.4114C1312.63 87.4114 1338.31 89.3891 1385.04 95.3892C1389.86 96.0081 1394.47 96.5856 1398.91 97.1237H1430.31C1417.65 95.9412 1404.39 94.3864 1388.79 92.3833C1340.96 86.243 1314.1 84.1739 1260.83 84.1739C1207.24 84.1739 1175.83 86.4359 1126.38 92.3701C1125.52 92.4733 1119.29 93.2225 1117.47 93.4403C1104.99 94.935 1093.96 96.1516 1083.56 97.1237H1115.51ZM1115.51 64.7492C1075.53 69.4304 1049.4 71.2241 1008.67 71.2241L1008.67 67.9866C1037.64 67.9866 1058.86 67.0569 1083.56 64.7492H1115.51ZM1398.91 64.7492C1438.55 69.551 1465.1 71.2241 1513 71.2241V67.9866C1478.49 67.9866 1455.58 67.109 1430.31 64.7492L1398.91 64.7492ZM1008.67 87.4114C1051.24 87.4114 1077.85 85.4525 1120.99 80.2863C1122.82 80.0675 1129.05 79.3177 1129.91 79.2152C1178.32 73.4054 1208.62 71.2241 1260.83 71.2241C1312.63 71.2241 1338.31 73.2018 1385.04 79.2019C1432.87 85.3423 1459.73 87.4114 1513 87.4114V84.1739C1461.2 84.1739 1435.53 82.1962 1388.79 76.196C1340.96 70.0557 1314.1 67.9866 1260.83 67.9866C1207.24 67.9866 1175.83 70.2486 1126.38 76.1828C1125.52 76.286 1119.29 77.0353 1117.47 77.253C1075.36 82.2959 1049.84 84.1739 1008.67 84.1739L1008.67 87.4114Z" fill="#EEF5E2" fill-opacity="0.02"/>
<path fill-rule="evenodd" clip-rule="evenodd" d="M106.839 129.498C108.639 129.287 110.468 129.071 112.327 128.848C114.154 128.629 120.387 127.88 121.241 127.777C169.656 121.967 199.953 119.786 252.167 119.786C303.967 119.786 329.642 121.764 376.377 127.764C381.197 128.383 385.804 128.96 390.247 129.498H421.643C408.98 128.316 395.725 126.761 380.123 124.758C332.296 118.618 305.435 116.548 252.167 116.548C198.577 116.548 167.16 118.81 117.709 124.745C116.848 124.848 110.62 125.597 108.801 125.815C96.32 127.31 85.2963 128.526 74.8906 129.498H106.839ZM106.839 97.1237C66.8621 101.805 40.7336 103.599 0 103.599L0 100.361C28.9685 100.361 50.1882 99.4314 74.8906 97.1237H106.839ZM390.247 97.1237C429.886 101.926 456.433 103.599 504.333 103.599V100.361C469.825 100.361 446.912 99.4835 421.643 97.1237L390.247 97.1237ZM0 119.786C42.5683 119.786 69.1861 117.827 112.327 112.661C114.154 112.442 120.387 111.692 121.241 111.59C169.656 105.78 199.953 103.599 252.167 103.599C303.967 103.599 329.642 105.576 376.377 111.576C424.204 117.717 451.065 119.786 504.333 119.786V116.548C452.533 116.548 426.858 114.571 380.123 108.571C332.296 102.43 305.435 100.361 252.167 100.361C198.577 100.361 167.16 102.623 117.709 108.557C116.848 108.661 110.62 109.41 108.801 109.628C66.6906 114.67 41.1713 116.548 0 116.548L0 119.786Z" fill="#EEF5E2" fill-opacity="0.02"/>
<path fill-rule="evenodd" clip-rule="evenodd" d="M611.172 129.498C612.972 129.287 614.801 129.071 616.66 128.848C618.487 128.629 624.72 127.88 625.574 127.777C673.989 121.967 704.286 119.786 756.5 119.786C808.3 119.786 833.975 121.764 880.71 127.764C885.53 128.383 890.137 128.96 894.58 129.498H925.976C913.313 128.316 900.058 126.761 884.456 124.758C836.629 118.618 809.768 116.548 756.5 116.548C702.91 116.548 671.493 118.81 622.042 124.745C621.181 124.848 614.953 125.597 613.134 125.815C600.653 127.31 589.629 128.526 579.224 129.498H611.172ZM611.172 97.1237C571.195 101.805 545.067 103.599 504.333 103.599L504.333 100.361C533.301 100.361 554.521 99.4315 579.224 97.1237H611.172ZM894.58 97.1237C934.219 101.926 960.766 103.599 1008.67 103.599V100.361C974.158 100.361 951.245 99.4835 925.976 97.1237L894.58 97.1237ZM504.333 119.786C546.901 119.786 573.519 117.827 616.66 112.661C618.487 112.442 624.72 111.692 625.574 111.59C673.989 105.78 704.286 103.599 756.5 103.599C808.3 103.599 833.975 105.576 880.71 111.577C928.537 117.717 955.398 119.786 1008.67 119.786V116.548C956.866 116.548 931.191 114.571 884.456 108.571C836.629 102.43 809.768 100.361 756.5 100.361C702.91 100.361 671.493 102.623 622.042 108.557C621.181 108.661 614.953 109.41 613.134 109.628C571.024 114.67 545.504 116.548 504.333 116.548L504.333 119.786Z" fill="#EEF5E2" fill-opacity="0.02"/>
<path fill-rule="evenodd" clip-rule="evenodd" d="M1115.51 129.498C1117.31 129.287 1119.13 129.071 1120.99 128.848C1122.82 128.629 1129.05 127.88 1129.91 127.777C1178.32 121.967 1208.62 119.786 1260.83 119.786C1312.63 119.786 1338.31 121.764 1385.04 127.764C1389.86 128.383 1394.47 128.96 1398.91 129.498H1430.31C1417.65 128.316 1404.39 126.761 1388.79 124.758C1340.96 118.618 1314.1 116.548 1260.83 116.548C1207.24 116.548 1175.83 118.81 1126.38 124.745C1125.52 124.848 1119.29 125.597 1117.47 125.815C1104.99 127.31 1093.96 128.526 1083.56 129.498H1115.51ZM1115.51 97.1237C1075.53 101.805 1049.4 103.599 1008.67 103.599L1008.67 100.361C1037.64 100.361 1058.86 99.4315 1083.56 97.1237H1115.51ZM1398.91 97.1237C1438.55 101.926 1465.1 103.599 1513 103.599V100.361C1478.49 100.361 1455.58 99.4835 1430.31 97.1237L1398.91 97.1237ZM1008.67 119.786C1051.24 119.786 1077.85 117.827 1120.99 112.661C1122.82 112.442 1129.05 111.692 1129.91 111.59C1178.32 105.78 1208.62 103.599 1260.83 103.599C1312.63 103.599 1338.31 105.576 1385.04 111.577C1432.87 117.717 1459.73 119.786 1513 119.786V116.548C1461.2 116.548 1435.53 114.571 1388.79 108.571C1340.96 102.43 1314.1 100.361 1260.83 100.361C1207.24 100.361 1175.83 102.623 1126.38 108.557C1125.52 108.661 1119.29 109.41 1117.47 109.628C1075.36 114.67 1049.84 116.548 1008.67 116.548L1008.67 119.786Z" fill="#EEF5E2" fill-opacity="0.02"/>
<path fill-rule="evenodd" clip-rule="evenodd" d="M106.839 161.873C108.639 161.662 110.468 161.445 112.327 161.223C114.154 161.004 120.387 160.254 121.241 160.152C169.656 154.342 199.953 152.16 252.167 152.16C303.967 152.16 329.642 154.138 376.377 160.138C381.197 160.757 385.804 161.335 390.247 161.873H421.643C408.98 160.69 395.725 159.136 380.123 157.132C332.296 150.992 305.435 148.923 252.167 148.923C198.577 148.923 167.16 151.185 117.709 157.119C116.848 157.222 110.62 157.972 108.801 158.189C96.32 159.684 85.2963 160.901 74.8906 161.873H106.839ZM106.839 129.498C66.8621 134.18 40.7336 135.973 0 135.973L0 132.736C28.9685 132.736 50.1882 131.806 74.8906 129.498H106.839ZM390.247 129.498C429.886 134.3 456.433 135.973 504.333 135.973V132.736C469.825 132.736 446.912 131.858 421.643 129.498L390.247 129.498ZM0 152.16C42.5683 152.16 69.1861 150.202 112.327 145.035C114.154 144.817 120.387 144.067 121.241 143.964C169.656 138.155 199.953 135.973 252.167 135.973C303.967 135.973 329.642 137.951 376.377 143.951C424.204 150.091 451.065 152.16 504.333 152.16V148.923C452.533 148.923 426.858 146.945 380.123 140.945C332.296 134.805 305.435 132.736 252.167 132.736C198.577 132.736 167.16 134.998 117.709 140.932C116.848 141.035 110.62 141.784 108.801 142.002C66.6906 147.045 41.1713 148.923 0 148.923L0 152.16Z" fill="#EEF5E2" fill-opacity="0.02"/>
<path fill-rule="evenodd" clip-rule="evenodd" d="M611.172 161.873C612.972 161.662 614.801 161.445 616.66 161.223C618.487 161.004 624.72 160.254 625.574 160.152C673.989 154.342 704.286 152.161 756.5 152.161C808.3 152.161 833.975 154.138 880.71 160.138C885.53 160.757 890.137 161.335 894.58 161.873H925.976C913.313 160.69 900.058 159.136 884.456 157.133C836.629 150.992 809.768 148.923 756.5 148.923C702.91 148.923 671.493 151.185 622.042 157.119C621.181 157.223 614.953 157.972 613.134 158.189C600.653 159.684 589.629 160.901 579.224 161.873H611.172ZM611.172 129.498C571.195 134.18 545.067 135.973 504.333 135.973L504.333 132.736C533.301 132.736 554.521 131.806 579.224 129.498H611.172ZM894.58 129.498C934.219 134.3 960.766 135.973 1008.67 135.973V132.736C974.158 132.736 951.245 131.858 925.976 129.498L894.58 129.498ZM504.333 152.161C546.901 152.161 573.519 150.202 616.66 145.035C618.487 144.817 624.72 144.067 625.574 143.964C673.989 138.155 704.286 135.973 756.5 135.973C808.3 135.973 833.975 137.951 880.71 143.951C928.537 150.091 955.398 152.161 1008.67 152.161V148.923C956.866 148.923 931.191 146.945 884.456 140.945C836.629 134.805 809.768 132.736 756.5 132.736C702.91 132.736 671.493 134.998 622.042 140.932C621.181 141.035 614.953 141.784 613.134 142.002C571.024 147.045 545.504 148.923 504.333 148.923L504.333 152.161Z" fill="#EEF5E2" fill-opacity="0.02"/>
<path fill-rule="evenodd" clip-rule="evenodd" d="M1115.51 161.873C1117.31 161.662 1119.13 161.445 1120.99 161.223C1122.82 161.004 1129.05 160.254 1129.91 160.152C1178.32 154.342 1208.62 152.161 1260.83 152.161C1312.63 152.161 1338.31 154.138 1385.04 160.138C1389.86 160.757 1394.47 161.335 1398.91 161.873H1430.31C1417.65 160.69 1404.39 159.136 1388.79 157.133C1340.96 150.992 1314.1 148.923 1260.83 148.923C1207.24 148.923 1175.83 151.185 1126.38 157.119C1125.52 157.223 1119.29 157.972 1117.47 158.189C1104.99 159.684 1093.96 160.901 1083.56 161.873H1115.51ZM1115.51 129.498C1075.53 134.18 1049.4 135.973 1008.67 135.973L1008.67 132.736C1037.64 132.736 1058.86 131.806 1083.56 129.498H1115.51ZM1398.91 129.498C1438.55 134.3 1465.1 135.973 1513 135.973V132.736C1478.49 132.736 1455.58 131.858 1430.31 129.498L1398.91 129.498ZM1008.67 152.161C1051.24 152.161 1077.85 150.202 1120.99 145.035C1122.82 144.817 1129.05 144.067 1129.91 143.964C1178.32 138.155 1208.62 135.973 1260.83 135.973C1312.63 135.973 1338.31 137.951 1385.04 143.951C1432.87 150.091 1459.73 152.161 1513 152.161V148.923C1461.2 148.923 1435.53 146.945 1388.79 140.945C1340.96 134.805 1314.1 132.736 1260.83 132.736C1207.24 132.736 1175.83 134.998 1126.38 140.932C1125.52 141.035 1119.29 141.784 1117.47 142.002C1075.36 147.045 1049.84 148.923 1008.67 148.923L1008.67 152.161Z" fill="#EEF5E2" fill-opacity="0.02"/>
<path fill-rule="evenodd" clip-rule="evenodd" d="M106.839 194.247C108.639 194.037 110.468 193.82 112.327 193.597C114.154 193.378 120.387 192.629 121.241 192.526C169.656 186.716 199.953 184.535 252.167 184.535C303.967 184.535 329.642 186.513 376.377 192.513C381.197 193.132 385.804 193.709 390.247 194.247H421.643C408.98 193.065 395.725 191.51 380.123 189.507C332.296 183.367 305.435 181.298 252.167 181.298C198.577 181.298 167.16 183.56 117.709 189.494C116.848 189.597 110.62 190.346 108.801 190.564C96.32 192.059 85.2963 193.275 74.8906 194.247H106.839ZM106.839 161.873C66.8621 166.554 40.7336 168.348 0 168.348L0 165.11C28.9685 165.11 50.1882 164.181 74.8906 161.873H106.839ZM390.247 161.873C429.886 166.675 456.433 168.348 504.333 168.348V165.11C469.825 165.11 446.912 164.233 421.643 161.873L390.247 161.873ZM0 184.535C42.5683 184.535 69.1861 182.576 112.327 177.41C114.154 177.191 120.387 176.441 121.241 176.339C169.656 170.529 199.953 168.348 252.167 168.348C303.967 168.348 329.642 170.325 376.377 176.326C424.204 182.466 451.065 184.535 504.333 184.535V181.298C452.533 181.298 426.858 179.32 380.123 173.32C332.296 167.179 305.435 165.11 252.167 165.11C198.577 165.11 167.16 167.372 117.709 173.306C116.848 173.41 110.62 174.159 108.801 174.377C66.6906 179.42 41.1713 181.298 0 181.298L0 184.535Z" fill="#EEF5E2" fill-opacity="0.02"/>
<path fill-rule="evenodd" clip-rule="evenodd" d="M1115.51 226.622C1117.31 226.411 1119.13 226.195 1120.99 225.972C1122.82 225.753 1129.05 225.003 1129.91 224.901C1178.32 219.091 1208.62 216.91 1260.83 216.91C1312.63 216.91 1338.31 218.887 1385.04 224.888C1389.86 225.506 1394.47 226.084 1398.91 226.622H1430.31C1417.65 225.44 1404.39 223.885 1388.79 221.882C1340.96 215.741 1314.1 213.672 1260.83 213.672C1207.24 213.672 1175.83 215.934 1126.38 221.868C1125.52 221.972 1119.29 222.721 1117.47 222.939C1104.99 224.433 1093.96 225.65 1083.56 226.622H1115.51ZM1115.51 194.248C1075.53 198.929 1049.4 200.722 1008.67 200.722L1008.67 197.485C1037.64 197.485 1058.86 196.555 1083.56 194.248H1115.51ZM1398.91 194.248C1438.55 199.049 1465.1 200.722 1513 200.722V197.485C1478.49 197.485 1455.58 196.607 1430.31 194.248L1398.91 194.248ZM1008.67 216.91C1051.24 216.91 1077.85 214.951 1120.99 209.785C1122.82 209.566 1129.05 208.816 1129.91 208.714C1178.32 202.904 1208.62 200.722 1260.83 200.722C1312.63 200.722 1338.31 202.7 1385.04 208.7C1432.87 214.841 1459.73 216.91 1513 216.91V213.672C1461.2 213.672 1435.53 211.695 1388.79 205.694C1340.96 199.554 1314.1 197.485 1260.83 197.485C1207.24 197.485 1175.83 199.747 1126.38 205.681C1125.52 205.784 1119.29 206.534 1117.47 206.751C1075.36 211.794 1049.84 213.672 1008.67 213.672L1008.67 216.91Z" fill="#EEF5E2" fill-opacity="0.02"/>
<path fill-rule="evenodd" clip-rule="evenodd" d="M611.172 194.247C612.972 194.037 614.801 193.82 616.66 193.597C618.487 193.378 624.72 192.629 625.574 192.526C673.989 186.716 704.286 184.535 756.5 184.535C808.3 184.535 833.975 186.513 880.71 192.513C885.53 193.132 890.137 193.709 894.58 194.247H925.976C913.313 193.065 900.058 191.51 884.456 189.507C836.629 183.367 809.768 181.298 756.5 181.298C702.91 181.298 671.493 183.56 622.042 189.494C621.181 189.597 614.953 190.346 613.134 190.564C600.653 192.059 589.629 193.275 579.224 194.247H611.172ZM611.172 161.873C571.195 166.554 545.067 168.348 504.333 168.348L504.333 165.11C533.301 165.11 554.521 164.181 579.224 161.873H611.172ZM894.58 161.873C934.219 166.675 960.766 168.348 1008.67 168.348V165.11C974.158 165.11 951.245 164.233 925.976 161.873L894.58 161.873ZM504.333 184.535C546.901 184.535 573.519 182.576 616.66 177.41C618.487 177.191 624.72 176.441 625.574 176.339C673.989 170.529 704.286 168.348 756.5 168.348C808.3 168.348 833.975 170.326 880.71 176.326C928.537 182.466 955.398 184.535 1008.67 184.535V181.298C956.866 181.298 931.191 179.32 884.456 173.32C836.629 167.179 809.768 165.11 756.5 165.11C702.91 165.11 671.493 167.372 622.042 173.307C621.181 173.41 614.953 174.159 613.134 174.377C571.024 179.42 545.504 181.298 504.333 181.298L504.333 184.535Z" fill="#EEF5E2" fill-opacity="0.02"/>
<path fill-rule="evenodd" clip-rule="evenodd" d="M1115.51 194.247C1117.31 194.037 1119.13 193.82 1120.99 193.597C1122.82 193.378 1129.05 192.629 1129.91 192.526C1178.32 186.716 1208.62 184.535 1260.83 184.535C1312.63 184.535 1338.31 186.513 1385.04 192.513C1389.86 193.132 1394.47 193.709 1398.91 194.247H1430.31C1417.65 193.065 1404.39 191.51 1388.79 189.507C1340.96 183.367 1314.1 181.298 1260.83 181.298C1207.24 181.298 1175.83 183.56 1126.38 189.494C1125.52 189.597 1119.29 190.346 1117.47 190.564C1104.99 192.059 1093.96 193.275 1083.56 194.247H1115.51ZM1115.51 161.873C1075.53 166.554 1049.4 168.348 1008.67 168.348L1008.67 165.11C1037.64 165.11 1058.86 164.181 1083.56 161.873H1115.51ZM1398.91 161.873C1438.55 166.675 1465.1 168.348 1513 168.348V165.11C1478.49 165.11 1455.58 164.233 1430.31 161.873L1398.91 161.873ZM1008.67 184.535C1051.24 184.535 1077.85 182.576 1120.99 177.41C1122.82 177.191 1129.05 176.441 1129.91 176.339C1178.32 170.529 1208.62 168.348 1260.83 168.348C1312.63 168.348 1338.31 170.326 1385.04 176.326C1432.87 182.466 1459.73 184.535 1513 184.535V181.298C1461.2 181.298 1435.53 179.32 1388.79 173.32C1340.96 167.179 1314.1 165.11 1260.83 165.11C1207.24 165.11 1175.83 167.372 1126.38 173.307C1125.52 173.41 1119.29 174.159 1117.47 174.377C1075.36 179.42 1049.84 181.298 1008.67 181.298L1008.67 184.535Z" fill="#EEF5E2" fill-opacity="0.02"/>
<path fill-rule="evenodd" clip-rule="evenodd" d="M106.839 226.622C108.639 226.411 110.468 226.194 112.327 225.972C114.154 225.753 120.387 225.003 121.241 224.901C169.656 219.091 199.953 216.91 252.167 216.91C303.967 216.91 329.642 218.887 376.377 224.888C381.197 225.506 385.804 226.084 390.247 226.622H421.643C408.98 225.439 395.725 223.885 380.123 221.882C332.296 215.741 305.435 213.672 252.167 213.672C198.577 213.672 167.16 215.934 117.709 221.868C116.848 221.972 110.62 222.721 108.801 222.939C96.32 224.433 85.2963 225.65 74.8906 226.622H106.839ZM106.839 194.247C66.8621 198.929 40.7336 200.722 0 200.722L0 197.485C28.9685 197.485 50.1882 196.555 74.8906 194.247H106.839ZM390.247 194.247C429.886 199.049 456.433 200.722 504.333 200.722V197.485C469.825 197.485 446.912 196.607 421.643 194.247L390.247 194.247ZM0 216.91C42.5683 216.91 69.1861 214.951 112.327 209.785C114.154 209.566 120.387 208.816 121.241 208.713C169.656 202.904 199.953 200.722 252.167 200.722C303.967 200.722 329.642 202.7 376.377 208.7C424.204 214.841 451.065 216.91 504.333 216.91V213.672C452.533 213.672 426.858 211.694 380.123 205.694C332.296 199.554 305.435 197.485 252.167 197.485C198.577 197.485 167.16 199.747 117.709 205.681C116.848 205.784 110.62 206.534 108.801 206.751C66.6906 211.794 41.1713 213.672 0 213.672L0 216.91Z" fill="#EEF5E2" fill-opacity="0.02"/>
<path fill-rule="evenodd" clip-rule="evenodd" d="M611.172 226.622C612.972 226.411 614.801 226.195 616.66 225.972C618.487 225.753 624.72 225.003 625.574 224.901C673.989 219.091 704.286 216.91 756.5 216.91C808.3 216.91 833.975 218.887 880.71 224.888C885.53 225.506 890.137 226.084 894.58 226.622H925.976C913.313 225.44 900.058 223.885 884.456 221.882C836.629 215.741 809.768 213.672 756.5 213.672C702.91 213.672 671.493 215.934 622.042 221.868C621.181 221.972 614.953 222.721 613.134 222.939C600.653 224.433 589.629 225.65 579.224 226.622H611.172ZM611.172 194.247C571.195 198.929 545.067 200.722 504.333 200.722L504.333 197.485C533.301 197.485 554.521 196.555 579.224 194.247H611.172ZM894.58 194.247C934.219 199.049 960.766 200.722 1008.67 200.722V197.485C974.158 197.485 951.245 196.607 925.976 194.247L894.58 194.247ZM504.333 216.91C546.901 216.91 573.519 214.951 616.66 209.785C618.487 209.566 624.72 208.816 625.574 208.714C673.989 202.904 704.286 200.722 756.5 200.722C808.3 200.722 833.975 202.7 880.71 208.7C928.537 214.841 955.398 216.91 1008.67 216.91V213.672C956.866 213.672 931.191 211.695 884.456 205.694C836.629 199.554 809.768 197.485 756.5 197.485C702.91 197.485 671.493 199.747 622.042 205.681C621.181 205.784 614.953 206.534 613.134 206.751C571.024 211.794 545.504 213.672 504.333 213.672L504.333 216.91Z" fill="#EEF5E2" fill-opacity="0.02"/>
<path fill-rule="evenodd" clip-rule="evenodd" d="M106.839 258.997C108.639 258.786 110.468 258.569 112.327 258.346C114.154 258.128 120.387 257.378 121.241 257.275C169.656 251.466 199.953 249.284 252.167 249.284C303.967 249.284 329.642 251.262 376.377 257.262C381.197 257.881 385.804 258.458 390.247 258.997H421.643C408.98 257.814 395.725 256.259 380.123 254.256C332.296 248.116 305.435 246.047 252.167 246.047C198.577 246.047 167.16 248.309 117.709 254.243C116.848 254.346 110.62 255.095 108.801 255.313C96.32 256.808 85.2963 258.024 74.8906 258.997H106.839ZM106.839 226.622C66.8621 231.303 40.7336 233.097 0 233.097L0 229.859C28.9685 229.859 50.1882 228.93 74.8906 226.622H106.839ZM390.247 226.622C429.886 231.424 456.433 233.097 504.333 233.097V229.859C469.825 229.859 446.912 228.982 421.643 226.622L390.247 226.622ZM0 249.284C42.5683 249.284 69.1861 247.325 112.327 242.159C114.154 241.94 120.387 241.191 121.241 241.088C169.656 235.278 199.953 233.097 252.167 233.097C303.967 233.097 329.642 235.075 376.377 241.075C424.204 247.215 451.065 249.284 504.333 249.284V246.047C452.533 246.047 426.858 244.069 380.123 238.069C332.296 231.929 305.435 229.859 252.167 229.859C198.577 229.859 167.16 232.121 117.709 238.056C116.848 238.159 110.62 238.908 108.801 239.126C66.6906 244.169 41.1713 246.047 0 246.047L0 249.284Z" fill="#EEF5E2" fill-opacity="0.02"/>
<path fill-rule="evenodd" clip-rule="evenodd" d="M611.172 258.997C612.972 258.786 614.801 258.569 616.66 258.346C618.487 258.128 624.72 257.378 625.574 257.275C673.989 251.465 704.286 249.284 756.5 249.284C808.3 249.284 833.975 251.262 880.71 257.262C885.53 257.881 890.137 258.458 894.58 258.997H925.976C913.313 257.814 900.058 256.259 884.456 254.256C836.629 248.116 809.768 246.047 756.5 246.047C702.91 246.047 671.493 248.309 622.042 254.243C621.181 254.346 614.953 255.095 613.134 255.313C600.653 256.808 589.629 258.024 579.224 258.997H611.172ZM611.172 226.622C571.195 231.303 545.067 233.097 504.333 233.097L504.333 229.859C533.301 229.859 554.521 228.93 579.224 226.622H611.172ZM894.58 226.622C934.219 231.424 960.766 233.097 1008.67 233.097V229.859C974.158 229.859 951.245 228.982 925.976 226.622L894.58 226.622ZM504.333 249.284C546.901 249.284 573.519 247.325 616.66 242.159C618.487 241.94 624.72 241.19 625.574 241.088C673.989 235.278 704.286 233.097 756.5 233.097C808.3 233.097 833.975 235.075 880.71 241.075C928.537 247.215 955.398 249.284 1008.67 249.284V246.047C956.866 246.047 931.191 244.069 884.456 238.069C836.629 231.928 809.768 229.859 756.5 229.859C702.91 229.859 671.493 232.121 622.042 238.056C621.181 238.159 614.953 238.908 613.134 239.126C571.024 244.169 545.504 246.047 504.333 246.047L504.333 249.284Z" fill="#EEF5E2" fill-opacity="0.02"/>
<path fill-rule="evenodd" clip-rule="evenodd" d="M1115.51 258.997C1117.31 258.786 1119.13 258.569 1120.99 258.346C1122.82 258.128 1129.05 257.378 1129.91 257.275C1178.32 251.465 1208.62 249.284 1260.83 249.284C1312.63 249.284 1338.31 251.262 1385.04 257.262C1389.86 257.881 1394.47 258.458 1398.91 258.997H1430.31C1417.65 257.814 1404.39 256.259 1388.79 254.256C1340.96 248.116 1314.1 246.047 1260.83 246.047C1207.24 246.047 1175.83 248.309 1126.38 254.243C1125.52 254.346 1119.29 255.095 1117.47 255.313C1104.99 256.808 1093.96 258.024 1083.56 258.997H1115.51ZM1115.51 226.622C1075.53 231.303 1049.4 233.097 1008.67 233.097L1008.67 229.859C1037.64 229.859 1058.86 228.93 1083.56 226.622H1115.51ZM1398.91 226.622C1438.55 231.424 1465.1 233.097 1513 233.097V229.859C1478.49 229.859 1455.58 228.982 1430.31 226.622L1398.91 226.622ZM1008.67 249.284C1051.24 249.284 1077.85 247.325 1120.99 242.159C1122.82 241.94 1129.05 241.19 1129.91 241.088C1178.32 235.278 1208.62 233.097 1260.83 233.097C1312.63 233.097 1338.31 235.075 1385.04 241.075C1432.87 247.215 1459.73 249.284 1513 249.284V246.047C1461.2 246.047 1435.53 244.069 1388.79 238.069C1340.96 231.928 1314.1 229.859 1260.83 229.859C1207.24 229.859 1175.83 232.121 1126.38 238.056C1125.52 238.159 1119.29 238.908 1117.47 239.126C1075.36 244.169 1049.84 246.047 1008.67 246.047L1008.67 249.284Z" fill="#EEF5E2" fill-opacity="0.02"/>
<path fill-rule="evenodd" clip-rule="evenodd" d="M106.839 291.371C108.639 291.16 110.468 290.944 112.327 290.721C114.154 290.502 120.387 289.752 121.241 289.65C169.656 283.84 199.953 281.659 252.167 281.659C303.967 281.659 329.642 283.636 376.377 289.637C381.197 290.255 385.804 290.833 390.247 291.371H421.643C408.98 290.189 395.725 288.634 380.123 286.631C332.296 280.49 305.435 278.421 252.167 278.421C198.577 278.421 167.16 280.683 117.709 286.617C116.848 286.721 110.62 287.47 108.801 287.688C96.32 289.182 85.2963 290.399 74.8906 291.371H106.839ZM106.839 258.997C66.8621 263.678 40.7336 265.471 0 265.471L0 262.234C28.9685 262.234 50.1882 261.304 74.8906 258.997H106.839ZM390.247 258.997C429.886 263.798 456.433 265.471 504.333 265.471V262.234C469.825 262.234 446.912 261.356 421.643 258.997L390.247 258.997ZM0 281.659C42.5683 281.659 69.1861 279.7 112.327 274.534C114.154 274.315 120.387 273.565 121.241 273.463C169.656 267.653 199.953 265.471 252.167 265.471C303.967 265.471 329.642 267.449 376.377 273.449C424.204 279.59 451.065 281.659 504.333 281.659V278.421C452.533 278.421 426.858 276.444 380.123 270.443C332.296 264.303 305.435 262.234 252.167 262.234C198.577 262.234 167.16 264.496 117.709 270.43C116.848 270.533 110.62 271.283 108.801 271.5C66.6906 276.543 41.1713 278.421 0 278.421L0 281.659Z" fill="#EEF5E2" fill-opacity="0.02"/>
<path fill-rule="evenodd" clip-rule="evenodd" d="M611.172 291.371C612.972 291.16 614.801 290.944 616.66 290.721C618.487 290.502 624.72 289.752 625.574 289.65C673.989 283.84 704.286 281.659 756.5 281.659C808.3 281.659 833.975 283.636 880.71 289.637C885.53 290.255 890.137 290.833 894.58 291.371H925.976C913.313 290.189 900.058 288.634 884.456 286.631C836.629 280.49 809.768 278.421 756.5 278.421C702.91 278.421 671.493 280.683 622.042 286.617C621.181 286.721 614.953 287.47 613.134 287.688C600.653 289.182 589.629 290.399 579.224 291.371H611.172ZM611.172 258.997C571.195 263.678 545.067 265.471 504.333 265.471L504.333 262.234C533.301 262.234 554.521 261.304 579.224 258.997H611.172ZM894.58 258.997C934.219 263.798 960.766 265.471 1008.67 265.471V262.234C974.158 262.234 951.245 261.356 925.976 258.997L894.58 258.997ZM504.333 281.659C546.901 281.659 573.519 279.7 616.66 274.534C618.487 274.315 624.72 273.565 625.574 273.463C673.989 267.653 704.286 265.471 756.5 265.471C808.3 265.471 833.975 267.449 880.71 273.449C928.537 279.59 955.398 281.659 1008.67 281.659V278.421C956.866 278.421 931.191 276.444 884.456 270.443C836.629 264.303 809.768 262.234 756.5 262.234C702.91 262.234 671.493 264.496 622.042 270.43C621.181 270.533 614.953 271.283 613.134 271.5C571.024 276.543 545.504 278.421 504.333 278.421L504.333 281.659Z" fill="#EEF5E2" fill-opacity="0.02"/>
<path fill-rule="evenodd" clip-rule="evenodd" d="M1115.51 291.371C1117.31 291.16 1119.13 290.944 1120.99 290.721C1122.82 290.502 1129.05 289.752 1129.91 289.65C1178.32 283.84 1208.62 281.659 1260.83 281.659C1312.63 281.659 1338.31 283.636 1385.04 289.637C1389.86 290.255 1394.47 290.833 1398.91 291.371H1430.31C1417.65 290.189 1404.39 288.634 1388.79 286.631C1340.96 280.49 1314.1 278.421 1260.83 278.421C1207.24 278.421 1175.83 280.683 1126.38 286.617C1125.52 286.721 1119.29 287.47 1117.47 287.688C1104.99 289.182 1093.96 290.399 1083.56 291.371H1115.51ZM1115.51 258.997C1075.53 263.678 1049.4 265.471 1008.67 265.471L1008.67 262.234C1037.64 262.234 1058.86 261.304 1083.56 258.997H1115.51ZM1398.91 258.997C1438.55 263.798 1465.1 265.471 1513 265.471V262.234C1478.49 262.234 1455.58 261.356 1430.31 258.997L1398.91 258.997ZM1008.67 281.659C1051.24 281.659 1077.85 279.7 1120.99 274.534C1122.82 274.315 1129.05 273.565 1129.91 273.463C1178.32 267.653 1208.62 265.471 1260.83 265.471C1312.63 265.471 1338.31 267.449 1385.04 273.449C1432.87 279.59 1459.73 281.659 1513 281.659V278.421C1461.2 278.421 1435.53 276.444 1388.79 270.443C1340.96 264.303 1314.1 262.234 1260.83 262.234C1207.24 262.234 1175.83 264.496 1126.38 270.43C1125.52 270.533 1119.29 271.283 1117.47 271.5C1075.36 276.543 1049.84 278.421 1008.67 278.421L1008.67 281.659Z" fill="#EEF5E2" fill-opacity="0.02"/>
<path fill-rule="evenodd" clip-rule="evenodd" d="M106.839 323.746C108.639 323.535 110.468 323.318 112.327 323.095C114.154 322.877 120.387 322.127 121.241 322.024C169.656 316.215 199.953 314.033 252.167 314.033C303.967 314.033 329.642 316.011 376.377 322.011C381.197 322.63 385.804 323.208 390.247 323.746H421.643C408.98 322.563 395.725 321.008 380.123 319.005C332.296 312.865 305.435 310.796 252.167 310.796C198.577 310.796 167.16 313.058 117.709 318.992C116.848 319.095 110.62 319.845 108.801 320.062C96.32 321.557 85.2963 322.774 74.8906 323.746H106.839ZM106.839 291.371C66.8621 296.052 40.7336 297.846 0 297.846L0 294.609C28.9685 294.609 50.1882 293.679 74.8906 291.371H106.839ZM390.247 291.371C429.886 296.173 456.433 297.846 504.333 297.846V294.609C469.825 294.609 446.912 293.731 421.643 291.371L390.247 291.371ZM0 314.033C42.5683 314.033 69.1861 312.074 112.327 306.908C114.154 306.689 120.387 305.94 121.241 305.837C169.656 300.027 199.953 297.846 252.167 297.846C303.967 297.846 329.642 299.824 376.377 305.824C424.204 311.964 451.065 314.033 504.333 314.033V310.796C452.533 310.796 426.858 308.818 380.123 302.818C332.296 296.678 305.435 294.609 252.167 294.609C198.577 294.609 167.16 296.871 117.709 302.805C116.848 302.908 110.62 303.657 108.801 303.875C66.6906 308.918 41.1713 310.796 0 310.796L0 314.033Z" fill="#EEF5E2" fill-opacity="0.02"/>
<path fill-rule="evenodd" clip-rule="evenodd" d="M611.172 323.746C612.972 323.535 614.801 323.318 616.66 323.095C618.487 322.877 624.72 322.127 625.574 322.024C673.989 316.215 704.286 314.033 756.5 314.033C808.3 314.033 833.975 316.011 880.71 322.011C885.53 322.63 890.137 323.208 894.58 323.746H925.976C913.313 322.563 900.058 321.008 884.456 319.005C836.629 312.865 809.768 310.796 756.5 310.796C702.91 310.796 671.493 313.058 622.042 318.992C621.181 319.095 614.953 319.845 613.134 320.062C600.653 321.557 589.629 322.774 579.224 323.746H611.172ZM611.172 291.371C571.195 296.052 545.067 297.846 504.333 297.846L504.333 294.609C533.301 294.609 554.521 293.679 579.224 291.371H611.172ZM894.58 291.371C934.219 296.173 960.766 297.846 1008.67 297.846V294.609C974.158 294.609 951.245 293.731 925.976 291.371L894.58 291.371ZM504.333 314.033C546.901 314.033 573.519 312.074 616.66 306.908C618.487 306.689 624.72 305.94 625.574 305.837C673.989 300.027 704.286 297.846 756.5 297.846C808.3 297.846 833.975 299.824 880.71 305.824C928.537 311.964 955.398 314.033 1008.67 314.033V310.796C956.866 310.796 931.191 308.818 884.456 302.818C836.629 296.678 809.768 294.609 756.5 294.609C702.91 294.609 671.493 296.871 622.042 302.805C621.181 302.908 614.953 303.657 613.134 303.875C571.024 308.918 545.504 310.796 504.333 310.796L504.333 314.033Z" fill="#EEF5E2" fill-opacity="0.02"/>
<path fill-rule="evenodd" clip-rule="evenodd" d="M1115.51 323.746C1117.31 323.535 1119.13 323.318 1120.99 323.095C1122.82 322.877 1129.05 322.127 1129.91 322.024C1178.32 316.215 1208.62 314.033 1260.83 314.033C1312.63 314.033 1338.31 316.011 1385.04 322.011C1389.86 322.63 1394.47 323.208 1398.91 323.746H1430.31C1417.65 322.563 1404.39 321.008 1388.79 319.005C1340.96 312.865 1314.1 310.796 1260.83 310.796C1207.24 310.796 1175.83 313.058 1126.38 318.992C1125.52 319.095 1119.29 319.845 1117.47 320.062C1104.99 321.557 1093.96 322.774 1083.56 323.746H1115.51ZM1115.51 291.371C1075.53 296.052 1049.4 297.846 1008.67 297.846L1008.67 294.609C1037.64 294.609 1058.86 293.679 1083.56 291.371H1115.51ZM1398.91 291.371C1438.55 296.173 1465.1 297.846 1513 297.846V294.609C1478.49 294.609 1455.58 293.731 1430.31 291.371L1398.91 291.371ZM1008.67 314.033C1051.24 314.033 1077.85 312.074 1120.99 306.908C1122.82 306.689 1129.05 305.94 1129.91 305.837C1178.32 300.027 1208.62 297.846 1260.83 297.846C1312.63 297.846 1338.31 299.824 1385.04 305.824C1432.87 311.964 1459.73 314.033 1513 314.033V310.796C1461.2 310.796 1435.53 308.818 1388.79 302.818C1340.96 296.678 1314.1 294.609 1260.83 294.609C1207.24 294.609 1175.83 296.871 1126.38 302.805C1125.52 302.908 1119.29 303.657 1117.47 303.875C1075.36 308.918 1049.84 310.796 1008.67 310.796L1008.67 314.033Z" fill="#EEF5E2" fill-opacity="0.02"/>
<path fill-rule="evenodd" clip-rule="evenodd" d="M106.839 356.12C108.639 355.909 110.468 355.693 112.327 355.47C114.154 355.251 120.387 354.502 121.241 354.399C169.656 348.589 199.953 346.408 252.167 346.408C303.967 346.408 329.642 348.386 376.377 354.386C381.197 355.005 385.804 355.582 390.247 356.12H421.643C408.98 354.938 395.725 353.383 380.123 351.38C332.296 345.24 305.435 343.17 252.167 343.17C198.577 343.17 167.16 345.432 117.709 351.367C116.848 351.47 110.62 352.219 108.801 352.437C96.32 353.932 85.2963 355.148 74.8906 356.12H106.839ZM106.839 323.746C66.8621 328.427 40.7336 330.221 0 330.221L0 326.983C28.9685 326.983 50.1882 326.053 74.8906 323.746H106.839ZM390.247 323.746C429.886 328.548 456.433 330.221 504.333 330.221V326.983C469.825 326.983 446.912 326.106 421.643 323.746L390.247 323.746ZM0 346.408C42.5683 346.408 69.1861 344.449 112.327 339.283C114.154 339.064 120.387 338.314 121.241 338.212C169.656 332.402 199.953 330.221 252.167 330.221C303.967 330.221 329.642 332.198 376.377 338.199C424.204 344.339 451.065 346.408 504.333 346.408V343.17C452.533 343.17 426.858 341.193 380.123 335.193C332.296 329.052 305.435 326.983 252.167 326.983C198.577 326.983 167.16 329.245 117.709 335.179C116.848 335.283 110.62 336.032 108.801 336.25C66.6906 341.292 41.1713 343.17 0 343.17L0 346.408Z" fill="#EEF5E2" fill-opacity="0.02"/>
<path fill-rule="evenodd" clip-rule="evenodd" d="M611.172 356.12C612.972 355.909 614.801 355.693 616.66 355.47C618.487 355.251 624.72 354.502 625.574 354.399C673.989 348.589 704.286 346.408 756.5 346.408C808.3 346.408 833.975 348.386 880.71 354.386C885.53 355.005 890.137 355.582 894.58 356.12H925.976C913.313 354.938 900.058 353.383 884.456 351.38C836.629 345.24 809.768 343.17 756.5 343.17C702.91 343.17 671.493 345.432 622.042 351.367C621.181 351.47 614.953 352.219 613.134 352.437C600.653 353.932 589.629 355.148 579.224 356.12H611.172ZM611.172 323.746C571.195 328.427 545.067 330.221 504.333 330.221L504.333 326.983C533.301 326.983 554.521 326.053 579.224 323.746H611.172ZM894.58 323.746C934.219 328.548 960.766 330.221 1008.67 330.221V326.983C974.158 326.983 951.245 326.105 925.976 323.746L894.58 323.746ZM504.333 346.408C546.901 346.408 573.519 344.449 616.66 339.283C618.487 339.064 624.72 338.314 625.574 338.212C673.989 332.402 704.286 330.221 756.5 330.221C808.3 330.221 833.975 332.198 880.71 338.198C928.537 344.339 955.398 346.408 1008.67 346.408V343.17C956.866 343.17 931.191 341.193 884.456 335.193C836.629 329.052 809.768 326.983 756.5 326.983C702.91 326.983 671.493 329.245 622.042 335.179C621.181 335.283 614.953 336.032 613.134 336.25C571.024 341.292 545.504 343.17 504.333 343.17L504.333 346.408Z" fill="#EEF5E2" fill-opacity="0.02"/>
<path fill-rule="evenodd" clip-rule="evenodd" d="M1115.51 356.12C1117.31 355.909 1119.13 355.693 1120.99 355.47C1122.82 355.251 1129.05 354.502 1129.91 354.399C1178.32 348.589 1208.62 346.408 1260.83 346.408C1312.63 346.408 1338.31 348.386 1385.04 354.386C1389.86 355.005 1394.47 355.582 1398.91 356.12H1430.31C1417.65 354.938 1404.39 353.383 1388.79 351.38C1340.96 345.24 1314.1 343.17 1260.83 343.17C1207.24 343.17 1175.83 345.432 1126.38 351.367C1125.52 351.47 1119.29 352.219 1117.47 352.437C1104.99 353.932 1093.96 355.148 1083.56 356.12H1115.51ZM1115.51 323.746C1075.53 328.427 1049.4 330.221 1008.67 330.221L1008.67 326.983C1037.64 326.983 1058.86 326.053 1083.56 323.746H1115.51ZM1398.91 323.746C1438.55 328.548 1465.1 330.221 1513 330.221V326.983C1478.49 326.983 1455.58 326.105 1430.31 323.746L1398.91 323.746ZM1008.67 346.408C1051.24 346.408 1077.85 344.449 1120.99 339.283C1122.82 339.064 1129.05 338.314 1129.91 338.212C1178.32 332.402 1208.62 330.221 1260.83 330.221C1312.63 330.221 1338.31 332.198 1385.04 338.198C1432.87 344.339 1459.73 346.408 1513 346.408V343.17C1461.2 343.17 1435.53 341.193 1388.79 335.193C1340.96 329.052 1314.1 326.983 1260.83 326.983C1207.24 326.983 1175.83 329.245 1126.38 335.179C1125.52 335.283 1119.29 336.032 1117.47 336.25C1075.36 341.292 1049.84 343.17 1008.67 343.17L1008.67 346.408Z" fill="#EEF5E2" fill-opacity="0.02"/>
</g>
<defs>
<clipPath id="clip0_454_8594">
<rect width="1513" height="345" fill="white"/>
</clipPath>
</defs>
</svg>
