<svg width="33" height="32" viewBox="0 0 33 32" fill="none" xmlns="http://www.w3.org/2000/svg">
<path d="M13.2324 27.6667C14.4849 27.6667 15.5004 26.6513 15.5004 25.3987C15.5004 24.1462 14.4849 23.1307 13.2324 23.1307C11.9798 23.1307 10.9644 24.1462 10.9644 25.3987C10.9644 26.6513 11.9798 27.6667 13.2324 27.6667Z" stroke="#F0F7EC" stroke-width="1.5" stroke-linecap="round" stroke-linejoin="round"/>
<path d="M23.1137 27.6667C24.3663 27.6667 25.3817 26.6513 25.3817 25.3987C25.3817 24.1462 24.3663 23.1307 23.1137 23.1307C21.8611 23.1307 20.8457 24.1462 20.8457 25.3987C20.8457 26.6513 21.8611 27.6667 23.1137 27.6667Z" stroke="#F0F7EC" stroke-width="1.5" stroke-linecap="round" stroke-linejoin="round"/>
<path d="M7.97483 7.40671L10.6548 15.892C11.0668 17.196 11.2722 17.848 11.6682 18.3307C12.0148 18.7574 12.4668 19.0867 12.9775 19.2907C13.5575 19.5214 14.2402 19.5214 15.6082 19.5214H20.7482C22.1162 19.5214 22.7988 19.5214 23.3775 19.2907C23.8895 19.0867 24.3402 18.7574 24.6882 18.3307C25.0828 17.848 25.2882 17.196 25.7015 15.892L26.2468 14.164L26.5668 13.1427L27.0082 11.7427C27.1657 11.2434 27.2033 10.714 27.1181 10.1974C27.0328 9.68078 26.8271 9.19153 26.5175 8.76926C26.208 8.34699 25.8033 8.00358 25.3363 7.76686C24.8693 7.53014 24.3531 7.40675 23.8295 7.40671H7.97483ZM7.97483 7.40671L7.96016 7.35737C7.90386 7.16879 7.84161 6.98203 7.7735 6.79737C7.50356 6.1141 7.04581 5.52114 6.45313 5.08701C5.86045 4.65288 5.15704 4.3953 4.42416 4.34404C4.28683 4.33337 4.13616 4.33337 3.8335 4.33337" stroke="#F0F7EC" stroke-width="1.5" stroke-linecap="round" stroke-linejoin="round"/>
</svg>
