<svg width="34" height="62" viewBox="0 0 34 62" fill="none" xmlns="http://www.w3.org/2000/svg">
<mask id="mask0_901_1176" style="mask-type:luminance" maskUnits="userSpaceOnUse" x="0" y="0" width="34" height="62">
<path d="M34 17C34 7.61116 26.3888 0 17 0C7.61116 0 0 7.61116 0 17V44.5747C0 53.9635 7.61116 61.5747 17 61.5747C26.3888 61.5747 34 53.9635 34 44.5747V17Z" fill="white"/>
</mask>
<g mask="url(#mask0_901_1176)">
<path d="M-2.62939 27.0593L-2.2119 26.9994C5.15686 25.942 12.549 28.7665 17.3352 34.4683" stroke="#A5E128" stroke-width="4.14961"/>
<path d="M-6.3125 33.4044C0.522977 30.6017 8.38626 32.5423 13.1328 38.2036L14.1248 39.3868" stroke="#A5E128" stroke-width="4.14961"/>
<path d="M-6.22363 38.6847C-0.752936 36.3061 5.63138 37.8313 9.43625 42.4258L10.107 43.2358" stroke="#A5E128" stroke-width="4.14961"/>
<path d="M-1.9126 43.3097C0.919013 42.8515 3.77581 43.9691 5.54491 46.227L7.76389 49.0592" stroke="#A5E128" stroke-width="4.14961"/>
<path d="M-2.54395 48.6571C-1.13881 48.1753 0.417516 48.6277 1.34546 49.7877L6.49145 56.2201" stroke="#A5E128" stroke-width="4.14961"/>
<g filter="url(#filter0_d_901_1176)">
<path d="M49.0137 24.2231C26.9901 20.588 6.96533 37.5785 6.96533 59.9001V61.5144" stroke="#6BB244" stroke-width="4.14961"/>
</g>
<path d="M50.6785 29.4842C30.2832 25.1791 11.313 41.2883 12.2564 62.1119L12.3195 63.5034" stroke="#6BB244" stroke-width="4.14961"/>
<path d="M52.3047 34.4745C33.6679 29.5583 15.8378 44.72 17.695 63.9045L17.8077 65.0688" stroke="#6BB244" stroke-width="4.14961"/>
<path d="M55.8195 37.5388L46.3446 37.9444C29.4196 38.669 18.2199 55.8147 24.3579 71.604" stroke="#6BB244" stroke-width="4.14961"/>
<path d="M51.4705 44.0177L45.3987 44.3379C30.947 45.1001 22.9399 61.426 31.1845 73.3195" stroke="#6BB244" stroke-width="4.14961"/>
<path d="M10.079 20.3269C10.9614 20.8633 11.975 21.1455 13.0078 21.1421C13.8729 21.1353 14.7283 20.9583 15.5252 20.6214C16.1394 21.4884 16.4681 22.5253 16.4655 23.5878V26.3012C16.4654 26.4022 16.4859 26.5021 16.5259 26.5947C16.5659 26.6873 16.6245 26.7708 16.6981 26.8398C16.7717 26.9088 16.8587 26.962 16.9537 26.996C17.0487 27.03 17.1497 27.0441 17.2504 27.0374C17.4396 27.0209 17.6156 26.9335 17.7431 26.7927C17.8705 26.6519 17.9401 26.4682 17.9377 26.2783V25.1336L21.4913 21.5801C22.0195 21.7772 22.5782 21.8802 23.142 21.8847C23.9181 21.8867 24.6797 21.6743 25.3429 21.271C27.3478 20.0527 28.4271 17.2491 28.2183 13.7683C28.2077 13.5882 28.1315 13.4182 28.0039 13.2907C27.8764 13.1631 27.7064 13.0869 27.5264 13.0763C24.0455 12.8712 21.2419 13.9468 20.0273 15.9517C19.5501 16.7376 19.3418 17.6575 19.4339 18.5722C19.4396 18.6431 19.4657 18.7108 19.5091 18.7671C19.5525 18.8235 19.6113 18.8661 19.6783 18.8897C19.7454 18.9134 19.8178 18.9171 19.887 18.9005C19.9561 18.8838 20.0189 18.8474 20.0678 18.7958L21.8345 16.9464C21.9737 16.8142 22.1589 16.7415 22.3509 16.744C22.5428 16.7465 22.7262 16.8238 22.862 16.9595C22.9977 17.0953 23.0751 17.2787 23.0775 17.4706C23.0799 17.6625 23.0074 17.8479 22.8751 17.987L17.9175 23.0707C17.912 22.9989 17.9055 22.9272 17.8982 22.8563C17.7372 21.4915 17.135 20.2167 16.1831 19.2255L11.5282 14.3066C11.3901 14.1686 11.3124 13.9814 11.3123 13.7861C11.3123 13.5909 11.3897 13.4036 11.5277 13.2655C11.6657 13.1273 11.8529 13.0496 12.0482 13.0496C12.2434 13.0495 12.4307 13.127 12.5688 13.265L17.0774 18.0331C17.1226 18.0808 17.1797 18.1157 17.2428 18.134C17.306 18.1522 17.3729 18.1532 17.4365 18.1369C17.5002 18.1205 17.5584 18.0875 17.6049 18.041C17.6515 17.9946 17.6848 17.9366 17.7013 17.873C18.1374 16.2646 17.9451 14.6635 17.1124 13.2889C15.4691 10.5764 11.6451 9.12445 6.88246 9.40413C6.70242 9.41467 6.53243 9.49092 6.40491 9.6185C6.27734 9.74602 6.20108 9.91601 6.19054 10.0961C5.91452 14.8595 7.36646 18.6836 10.079 20.3269Z" fill="url(#paint0_linear_901_1176)"/>
</g>
<defs>
<filter id="filter0_d_901_1176" x="4.35519" y="20.8531" width="45.5318" height="40.929" filterUnits="userSpaceOnUse" color-interpolation-filters="sRGB">
<feFlood flood-opacity="0" result="BackgroundImageFix"/>
<feColorMatrix in="SourceAlpha" type="matrix" values="0 0 0 0 0 0 0 0 0 0 0 0 0 0 0 0 0 0 127 0" result="hardAlpha"/>
<feOffset dy="-0.267717"/>
<feGaussianBlur stdDeviation="0.267717"/>
<feComposite in2="hardAlpha" operator="out"/>
<feColorMatrix type="matrix" values="0 0 0 0 0.459722 0 0 0 0 0.459722 0 0 0 0 0.459722 0 0 0 0.25 0"/>
<feBlend mode="normal" in2="BackgroundImageFix" result="effect1_dropShadow_901_1176"/>
<feBlend mode="normal" in="SourceGraphic" in2="effect1_dropShadow_901_1176" result="shape"/>
</filter>
<linearGradient id="paint0_linear_901_1176" x1="9.43676" y1="8.03142" x2="20.2124" y2="26.2362" gradientUnits="userSpaceOnUse">
<stop stop-color="#9DD629"/>
<stop offset="1" stop-color="#6BB244"/>
</linearGradient>
</defs>
</svg>
