<svg width="36" height="55" viewBox="0 0 36 55" fill="none" xmlns="http://www.w3.org/2000/svg">
<path d="M-2.73291 19.1252L-2.29897 19.0629C5.36004 17.9639 13.0433 20.8996 18.018 26.826" stroke="#A5E128" stroke-width="4.31305"/>
<path d="M-6.56104 25.7203C0.543681 22.8071 8.71668 24.8243 13.6502 30.7085L14.6813 31.9383" stroke="#A5E128" stroke-width="4.31305"/>
<path d="M-6.46875 31.2085C-0.782571 28.7362 5.85322 30.3215 9.80795 35.097L10.5052 35.9389" stroke="#A5E128" stroke-width="4.31305"/>
<path d="M-1.98779 36.0156C0.955351 35.5394 3.92468 36.7009 5.76346 39.0478L8.06984 41.9915" stroke="#A5E128" stroke-width="4.31305"/>
<path d="M-2.64404 41.5737C-1.18356 41.073 0.434066 41.5432 1.39856 42.7488L6.74724 49.4346" stroke="#A5E128" stroke-width="4.31305"/>
<g filter="url(#filter0_d_191_2024)">
<path d="M50.9444 16.1773C28.0533 12.399 7.23975 30.0588 7.23975 53.2596V54.9375" stroke="#6BB244" stroke-width="4.31305"/>
</g>
<path d="M52.6746 21.6456C31.476 17.1709 11.7586 33.9146 12.7392 55.5585L12.8048 57.0047" stroke="#6BB244" stroke-width="4.31305"/>
<path d="M54.3651 26.8324C34.9942 21.7226 16.4618 37.4814 18.3921 57.4216L18.5093 58.6318" stroke="#6BB244" stroke-width="4.31305"/>
<path d="M58.0183 30.0175L48.1702 30.4391C30.5785 31.1922 18.9377 49.0133 25.3175 65.4245" stroke="#6BB244" stroke-width="4.31305"/>
<path d="M53.4979 36.7516L47.1869 37.0844C32.166 37.8767 23.8436 54.8456 32.4129 67.2075" stroke="#6BB244" stroke-width="4.31305"/>
<path d="M10.4761 12.1277C11.3933 12.6853 12.4469 12.9785 13.5203 12.975C14.4195 12.9679 15.3086 12.784 16.1369 12.4338C16.7752 13.3349 17.1169 14.4127 17.1142 15.517V18.3373C17.114 18.4423 17.1354 18.5461 17.177 18.6424C17.2185 18.7387 17.2795 18.8254 17.356 18.8971C17.4325 18.9689 17.5229 19.0241 17.6217 19.0595C17.7204 19.0948 17.8254 19.1094 17.93 19.1025C18.1267 19.0853 18.3096 18.9945 18.4421 18.8482C18.5746 18.7018 18.6469 18.5108 18.6444 18.3135V17.1237L22.338 13.4302C22.887 13.6351 23.4677 13.7422 24.0537 13.7468C24.8604 13.7489 25.652 13.5282 26.3412 13.1089C28.4252 11.8427 29.547 8.92864 29.3299 5.31076C29.319 5.12356 29.2397 4.94688 29.1071 4.81434C28.9746 4.68174 28.7979 4.60248 28.6107 4.59152C24.9928 4.37828 22.0788 5.49627 20.8163 7.58018C20.3203 8.39697 20.1038 9.35312 20.1995 10.3039C20.2055 10.3776 20.2326 10.448 20.2777 10.5065C20.3228 10.5651 20.3839 10.6093 20.4536 10.6339C20.5233 10.6585 20.5986 10.6623 20.6704 10.645C20.7423 10.6277 20.8076 10.5899 20.8584 10.5363L22.6946 8.61403C22.8393 8.47661 23.0319 8.4011 23.2314 8.40367C23.4309 8.40624 23.6215 8.48663 23.7626 8.62768C23.9037 8.7688 23.9841 8.95938 23.9867 9.15891C23.9892 9.35838 23.9137 9.55103 23.7763 9.69565L18.6234 14.9796C18.6176 14.905 18.6109 14.8304 18.6033 14.7567C18.436 13.3382 17.8101 12.0131 16.8207 10.9829L11.9824 5.87023C11.8389 5.72679 11.7582 5.53221 11.758 5.32923C11.758 5.12632 11.8385 4.93167 11.9819 4.78811C12.1254 4.64455 12.3199 4.56378 12.5229 4.56372C12.7258 4.56366 12.9205 4.64417 13.064 4.78761L17.7502 9.74349C17.7972 9.79313 17.8565 9.82939 17.9221 9.84836C17.9878 9.86733 18.0573 9.86839 18.1235 9.85142C18.1897 9.83439 18.2501 9.80002 18.2985 9.75175C18.3469 9.70354 18.3815 9.64319 18.3986 9.57707C18.852 7.90537 18.6521 6.24124 17.7866 4.81246C16.0785 1.99309 12.1039 0.483982 7.1537 0.774671C6.96657 0.785628 6.78989 0.86489 6.65735 0.997494C6.52474 1.13004 6.44548 1.30672 6.43452 1.49385C6.14763 6.44497 7.65676 10.4197 10.4761 12.1277Z" fill="url(#paint0_linear_191_2024)"/>
<defs>
<filter id="filter0_d_191_2024" x="4.52648" y="12.6746" width="47.3254" height="42.5411" filterUnits="userSpaceOnUse" color-interpolation-filters="sRGB">
<feFlood flood-opacity="0" result="BackgroundImageFix"/>
<feColorMatrix in="SourceAlpha" type="matrix" values="0 0 0 0 0 0 0 0 0 0 0 0 0 0 0 0 0 0 127 0" result="hardAlpha"/>
<feOffset dy="-0.278262"/>
<feGaussianBlur stdDeviation="0.278262"/>
<feComposite in2="hardAlpha" operator="out"/>
<feColorMatrix type="matrix" values="0 0 0 0 0.459722 0 0 0 0 0.459722 0 0 0 0 0.459722 0 0 0 0.25 0"/>
<feBlend mode="normal" in2="BackgroundImageFix" result="effect1_dropShadow_191_2024"/>
<feBlend mode="normal" in="SourceGraphic" in2="effect1_dropShadow_191_2024" result="shape"/>
</filter>
<linearGradient id="paint0_linear_191_2024" x1="9.80861" y1="-0.652107" x2="21.0087" y2="18.2697" gradientUnits="userSpaceOnUse">
<stop stop-color="#9DD629"/>
<stop offset="1" stop-color="#6BB244"/>
</linearGradient>
</defs>
</svg>
