<svg width="25" height="20" viewBox="0 0 25 20" fill="none" xmlns="http://www.w3.org/2000/svg">
<path d="M4.86323 19.2354V18.0006C4.86323 17.5272 4.57504 17.2185 4.08107 17.2185C3.83414 17.2185 3.56657 17.3008 3.38132 17.5684C3.23732 17.342 3.03154 17.2185 2.72282 17.2185C2.51695 17.2185 2.31126 17.2802 2.14654 17.5066V17.2597H1.71436V19.2354H2.14654V18.1446C2.14654 17.7948 2.33179 17.6301 2.61998 17.6301C2.90798 17.6301 3.05217 17.8153 3.05217 18.1446V19.2354H3.48436V18.1446C3.48436 17.7948 3.69004 17.6301 3.95761 17.6301C4.24579 17.6301 4.38979 17.8153 4.38979 18.1446V19.2354H4.86323ZM11.2636 17.2597H10.564V16.6629H10.1318V17.2597H9.74076V17.6506H10.1317V18.5563C10.1317 19.0091 10.3169 19.2765 10.8109 19.2765C10.9962 19.2765 11.2019 19.2148 11.346 19.1325L11.2225 18.762C11.099 18.8443 10.955 18.865 10.8521 18.865C10.6463 18.865 10.564 18.7415 10.564 18.5356V17.6506H11.2636V17.2597ZM14.927 17.2184C14.6801 17.2184 14.5154 17.342 14.4125 17.5066V17.2597H13.9803V19.2354H14.4125V18.1241C14.4125 17.7948 14.5565 17.6096 14.8241 17.6096C14.9064 17.6096 15.0093 17.6302 15.0916 17.6507L15.2151 17.2392C15.1328 17.2185 15.0093 17.2185 14.927 17.2185M9.39089 17.4244C9.18501 17.2803 8.89692 17.2186 8.5882 17.2186C8.09432 17.2186 7.76507 17.4656 7.76507 17.8566C7.76507 18.1859 8.01201 18.3711 8.4442 18.4329L8.64998 18.4535C8.87639 18.4946 8.99986 18.5563 8.99986 18.6593C8.99986 18.8033 8.83523 18.9062 8.54704 18.9062C8.25886 18.9062 8.03254 18.8033 7.88845 18.7004L7.68267 19.0297C7.90907 19.1943 8.21779 19.2766 8.52642 19.2766C9.1027 19.2766 9.43204 19.0092 9.43204 18.6387C9.43204 18.2888 9.16448 18.1035 8.75282 18.0418L8.54704 18.0212C8.36179 18.0006 8.21779 17.9595 8.21779 17.8361C8.21779 17.692 8.36179 17.6097 8.5882 17.6097C8.83523 17.6097 9.08217 17.7125 9.20564 17.7743L9.39089 17.4244ZM20.8748 17.2186C20.6278 17.2186 20.4631 17.3421 20.3602 17.5067V17.2598H19.928V19.2355H20.3602V18.1242C20.3602 17.7949 20.5043 17.6097 20.7718 17.6097C20.8542 17.6097 20.9571 17.6303 21.0394 17.6508L21.1629 17.2393C21.0806 17.2186 20.9571 17.2186 20.8748 17.2186ZM15.3592 18.2476C15.3592 18.8444 15.7708 19.2766 16.4088 19.2766C16.6969 19.2766 16.9027 19.2149 17.1085 19.0503L16.9027 18.7004C16.7381 18.8239 16.5735 18.8856 16.3882 18.8856C16.0383 18.8856 15.7914 18.6387 15.7914 18.2476C15.7914 17.8772 16.0383 17.6302 16.3882 17.6097C16.5735 17.6097 16.7381 17.6713 16.9027 17.7949L17.1085 17.445C16.9027 17.2803 16.6969 17.2186 16.4088 17.2186C15.7708 17.2186 15.3592 17.6508 15.3592 18.2476ZM19.3518 18.2476V17.2598H18.9196V17.5067C18.7755 17.3216 18.5698 17.2186 18.3022 17.2186C17.7465 17.2186 17.3144 17.6508 17.3144 18.2476C17.3144 18.8444 17.7465 19.2766 18.3022 19.2766C18.5903 19.2766 18.7962 19.1738 18.9196 18.9885V19.2355H19.3518V18.2476ZM17.7671 18.2476C17.7671 17.8978 17.9935 17.6097 18.3639 17.6097C18.7138 17.6097 18.9608 17.8772 18.9608 18.2476C18.9608 18.5975 18.7138 18.8856 18.3639 18.8856C17.9935 18.865 17.7671 18.5975 17.7671 18.2476ZM12.6014 17.2186C12.0252 17.2186 11.6135 17.6302 11.6135 18.2476C11.6135 18.8651 12.0251 19.2766 12.622 19.2766C12.9101 19.2766 13.1983 19.1943 13.4247 19.0092L13.2188 18.7004C13.0542 18.8239 12.8484 18.9062 12.6426 18.9062C12.375 18.9062 12.1075 18.7828 12.0457 18.4328H13.507V18.2683C13.5276 17.6302 13.1572 17.2186 12.6014 17.2186ZM12.6014 17.589C12.8688 17.589 13.0542 17.7538 13.0952 18.0625H12.0662C12.1074 17.7949 12.2926 17.589 12.6014 17.589ZM23.3237 18.2476V16.4777H22.8915V17.5067C22.7474 17.3216 22.5417 17.2186 22.2741 17.2186C21.7184 17.2186 21.2863 17.6508 21.2863 18.2476C21.2863 18.8444 21.7184 19.2766 22.2741 19.2766C22.5623 19.2766 22.7681 19.1738 22.8915 18.9885V19.2355H23.3237V18.2476ZM21.7391 18.2476C21.7391 17.8978 21.9654 17.6097 22.3359 17.6097C22.6858 17.6097 22.9327 17.8772 22.9327 18.2476C22.9327 18.5975 22.6858 18.8856 22.3359 18.8856C21.9654 18.865 21.7391 18.5975 21.7391 18.2476ZM7.29154 18.2476V17.2598H6.85936V17.5067C6.71526 17.3216 6.50948 17.2186 6.24192 17.2186C5.68626 17.2186 5.25407 17.6508 5.25407 18.2476C5.25407 18.8444 5.68626 19.2766 6.24192 19.2766C6.53011 19.2766 6.73589 19.1738 6.85936 18.9885V19.2355H7.29154V18.2476ZM5.68626 18.2476C5.68626 17.8978 5.91267 17.6097 6.28307 17.6097C6.63295 17.6097 6.87998 17.8772 6.87998 18.2476C6.87998 18.5975 6.63295 18.8856 6.28307 18.8856C5.91267 18.865 5.68626 18.5975 5.68626 18.2476Z" fill="#F0F7EC"/>
<path d="M9.24658 2.25653H15.7294V13.9051H9.24658V2.25653Z" fill="#FF5F00"/>
<path d="M9.65834 8.08084C9.65834 5.71413 10.7697 3.61488 12.4778 2.25653C11.2225 1.26869 9.63781 0.671875 7.90906 0.671875C3.81341 0.671875 0.5 3.98528 0.5 8.08084C0.5 12.1764 3.81341 15.4898 7.90897 15.4898C9.63772 15.4898 11.2224 14.893 12.4778 13.9051C10.7697 12.5673 9.65834 10.4476 9.65834 8.08084Z" fill="#EB001B"/>
<path d="M24.4763 8.08084C24.4763 12.1763 21.1629 15.4898 17.0673 15.4898C15.3386 15.4898 13.7539 14.893 12.4985 13.9051C14.2273 12.5468 15.3181 10.4476 15.3181 8.08084C15.3181 5.71412 14.2067 3.61488 12.4985 2.25653C13.7538 1.26869 15.3386 0.671875 17.0673 0.671875C21.1629 0.671875 24.4763 4.00591 24.4763 8.08084Z" fill="#F79E1B"/>
</svg>
