<svg width="56" height="56" viewBox="0 0 56 56" fill="none" xmlns="http://www.w3.org/2000/svg">
<path d="M10.7707 44.3334C9.69578 44.3334 8.799 43.974 8.08033 43.2554C7.36167 42.5367 7.00156 41.6391 7 40.5627V15.4374C7 14.3625 7.36011 13.4657 8.08033 12.747C8.80056 12.0284 9.69656 11.6682 10.7683 11.6667H45.2317C46.305 11.6667 47.201 12.0268 47.9197 12.747C48.6383 13.4672 48.9984 14.364 49 15.4374V26.1147H9.33333V40.565C9.33333 40.9228 9.48267 41.2518 9.78133 41.552C10.08 41.8522 10.409 42.0016 10.7683 42H30.7813V44.3334H10.7707ZM9.33333 20.552H46.6667V15.4374C46.6667 15.078 46.5173 14.7482 46.2187 14.448C45.92 14.1478 45.591 13.9985 45.2317 14H10.7683C10.4106 14 10.0816 14.1494 9.78133 14.448C9.48111 14.7467 9.33178 15.0765 9.33333 15.4374V20.552ZM45.5 50.1667V43.1667H38.5V40.8334H45.5V33.8334H47.8333V40.8334H54.8333V43.1667H47.8333V50.1667H45.5Z" fill="#6BB244"/>
</svg>
