<svg width="63" height="12" viewBox="0 0 63 12" fill="none" xmlns="http://www.w3.org/2000/svg">
<g clip-path="url(#clip0_2480_7860)">
<path d="M8.99472 1.50647H0.558502C0.289261 1.50647 0.0424563 1.72892 0.0424563 2.0181V2.95239C0.0424563 3.24158 0.289261 3.48627 0.558502 3.48627H8.99472C9.2864 3.48627 9.51077 3.24158 9.5332 2.95239V2.04035C9.5332 1.72892 9.2864 1.50647 8.99472 1.50647ZM8.99472 6.75629H0.558502C0.423881 6.75629 0.289261 6.82302 0.177077 6.912C0.0873298 7.00098 0.0200195 7.13445 0.0200195 7.29017V8.22446C0.0200195 8.51364 0.266824 8.75834 0.536065 8.75834H8.97228C9.26396 8.75834 9.48833 8.53589 9.51077 8.22446V7.29017C9.5332 6.97874 9.2864 6.75629 8.99472 6.75629ZM5.31509 9.35895H0.558502C0.423881 9.35895 0.289261 9.40344 0.199514 9.51467C0.109767 9.60365 0.0424563 9.73712 0.0424563 9.89283V10.8271C0.0424563 11.1163 0.289261 11.361 0.558502 11.361H5.29266C5.58433 11.361 5.8087 11.1163 5.8087 10.8271V9.87059C5.83114 9.60365 5.60677 9.35895 5.31509 9.35895ZM9.5332 4.13138H0.558502C0.423881 4.13138 0.289261 4.17587 0.199514 4.28709C0.109767 4.37607 0.0424563 4.50954 0.0424563 4.66526V5.59955C0.0424563 5.88873 0.289261 6.13343 0.558502 6.13343H9.51077C9.80244 6.13343 10.0268 5.88873 10.0268 5.59955V4.66526C10.0492 4.35383 9.82488 4.13138 9.5332 4.13138Z" fill="#00C3F7"/>
<path d="M19.3383 3.61976C19.0691 3.35282 18.7774 3.15261 18.4184 2.9969C18.0819 2.84118 17.7005 2.77445 17.319 2.77445C16.96 2.77445 16.6011 2.84118 16.2645 2.9969C16.0401 3.10812 15.8382 3.24159 15.6811 3.41955V3.26384C15.6811 3.17486 15.6363 3.10812 15.5914 3.04139C15.5241 2.97465 15.4568 2.93016 15.367 2.93016H14.1779C14.0881 2.93016 13.9984 2.97465 13.9535 3.04139C13.8862 3.10812 13.8638 3.17486 13.8638 3.26384V11.0496C13.8638 11.1386 13.9086 11.2053 13.9535 11.272C14.0208 11.3388 14.0881 11.361 14.1779 11.361H15.367C15.4568 11.361 15.5241 11.3388 15.5914 11.272C15.6587 11.2053 15.6811 11.1386 15.6811 11.0496V8.38018C15.8606 8.55814 16.0626 8.71386 16.3094 8.78059C16.6235 8.89182 16.96 8.95855 17.2742 8.95855C17.6556 8.95855 18.037 8.89182 18.3736 8.7361C18.7325 8.60263 19.0467 8.38018 19.2935 8.11324C19.5627 7.82406 19.7871 7.49038 19.9217 7.13446C20.0788 6.73405 20.1685 6.28915 20.1461 5.8665C20.1461 5.4216 20.0788 4.99894 19.9217 4.57629C19.8319 4.24261 19.6076 3.90894 19.3383 3.61976ZM18.2838 6.44487C18.2165 6.60058 18.1268 6.7563 18.0146 6.88977C17.7678 7.15671 17.4312 7.29018 17.0722 7.29018C16.8927 7.29018 16.7132 7.24569 16.5562 7.17895C16.3991 7.11222 16.2421 7.00099 16.1299 6.88977C16.0177 6.7563 15.9055 6.60058 15.8382 6.44487C15.7036 6.08895 15.7036 5.71078 15.8382 5.35487C15.9055 5.19915 15.9953 5.04344 16.1299 4.90997C16.2645 4.77649 16.3991 4.68752 16.5562 4.59854C16.7132 4.5318 16.8927 4.48731 17.0722 4.48731C17.2517 4.48731 17.4312 4.5318 17.6107 4.59854C17.7678 4.66527 17.9024 4.77649 18.037 4.88772C18.1492 5.02119 18.2389 5.15466 18.3062 5.33262C18.4184 5.68854 18.4184 6.08895 18.2838 6.44487ZM26.6303 2.95241H25.4411C25.3514 2.95241 25.2841 2.9969 25.2168 3.04139C25.1495 3.10812 25.127 3.1971 25.127 3.28608V3.41955C24.97 3.24159 24.7905 3.10812 24.5885 3.01914C24.2744 2.86343 23.9154 2.79669 23.5564 2.79669C22.7936 2.79669 22.0532 3.10812 21.5147 3.642C21.2455 3.93119 21.0211 4.26486 20.864 4.62078C20.6845 5.02119 20.6172 5.46609 20.6172 5.91099C20.6172 6.35589 20.6845 6.80079 20.864 7.2012C21.0211 7.55712 21.2455 7.89079 21.5147 8.17998C22.0532 8.71386 22.7712 9.02529 23.534 9.02529C23.893 9.02529 24.252 8.95855 24.5661 8.80284C24.768 8.69161 24.97 8.55814 25.1046 8.40243V8.55814C25.1046 8.64712 25.1495 8.71386 25.1943 8.78059C25.2616 8.82508 25.329 8.86957 25.4187 8.86957H26.6078C26.6976 8.86957 26.7649 8.82508 26.8322 8.78059C26.8995 8.71386 26.922 8.64712 26.922 8.55814V3.28608C26.922 3.1971 26.8995 3.13037 26.8322 3.06363C26.7873 2.97465 26.72 2.95241 26.6303 2.95241ZM25.0148 6.42262C24.9475 6.57834 24.8578 6.73405 24.7456 6.86752C24.6334 6.97875 24.4764 7.08997 24.3193 7.17895C23.9827 7.33467 23.6013 7.33467 23.2648 7.17895C23.1077 7.11222 22.9507 7.00099 22.8385 6.86752C22.7263 6.73405 22.6141 6.57834 22.5692 6.42262C22.4346 6.0667 22.4346 5.68854 22.5692 5.33262C22.6365 5.1769 22.7263 5.02119 22.8385 4.88772C22.9507 4.75425 23.1077 4.66527 23.2648 4.57629C23.6013 4.42058 23.9827 4.42058 24.3193 4.57629C24.4764 4.64302 24.611 4.75425 24.7456 4.86547C24.8578 4.99894 24.9475 5.13241 25.0148 5.31037C25.1719 5.68854 25.1719 6.08895 25.0148 6.42262ZM38.4545 5.73303C38.275 5.57731 38.0955 5.46609 37.8711 5.37711C37.6467 5.28813 37.4224 5.22139 37.1756 5.1769L36.2781 4.99894C36.0537 4.95445 35.8742 4.88772 35.7845 4.82098C35.7172 4.77649 35.6723 4.68752 35.6723 4.59854C35.6723 4.50956 35.7172 4.42058 35.8518 4.35384C36.0089 4.26486 36.1883 4.22037 36.3454 4.24261C36.5698 4.24261 36.8166 4.28711 37.0185 4.37609C37.2204 4.46507 37.4224 4.57629 37.6019 4.68751C37.8711 4.84323 38.0955 4.82098 38.2525 4.64302L38.6788 4.15364C38.7686 4.06466 38.8134 3.95343 38.8134 3.84221C38.8134 3.73098 38.7461 3.59751 38.6564 3.53078C38.4769 3.37506 38.1852 3.1971 37.7814 3.04139C37.3999 2.88567 36.9063 2.79669 36.323 2.79669C35.964 2.79669 35.6274 2.84118 35.2909 2.95241C34.9992 3.04139 34.73 3.17486 34.5056 3.35282C34.2812 3.50853 34.1242 3.73098 33.9895 3.97567C33.8774 4.22037 33.81 4.46507 33.81 4.732C33.81 5.22139 33.9671 5.6218 34.2588 5.91099C34.5505 6.20017 34.9319 6.40038 35.4255 6.48936L36.3678 6.68956C36.5698 6.73405 36.7717 6.77854 36.9736 6.86752C37.0858 6.91201 37.1531 7.00099 37.1531 7.13446C37.1531 7.24569 37.1082 7.33467 36.9736 7.42365C36.8614 7.51263 36.6595 7.55712 36.4127 7.55712C36.1659 7.55712 35.8967 7.51263 35.6723 7.4014C35.4479 7.29018 35.246 7.15671 35.0665 7.00099C34.9768 6.93426 34.887 6.88977 34.7973 6.84528C34.6851 6.82303 34.5505 6.84528 34.4158 6.9565L33.8998 7.35691C33.7652 7.46814 33.6754 7.6461 33.7203 7.80181C33.7427 7.97977 33.8998 8.13549 34.1466 8.33569C34.7973 8.78059 35.5825 9.00304 36.3678 8.9808C36.7268 8.9808 37.1082 8.93631 37.4448 8.82508C37.7589 8.7361 38.0282 8.60263 38.275 8.40243C38.4993 8.22447 38.7013 8.00202 38.8134 7.75732C38.9481 7.51263 38.9929 7.24569 38.9929 6.9565C38.9929 6.71181 38.9481 6.46711 38.8359 6.22242C38.7461 6.0667 38.6115 5.88874 38.4545 5.73303ZM43.6149 7.15671C43.57 7.06773 43.4578 7.00099 43.3457 6.97875C43.2335 6.97875 43.1213 7.02324 43.0316 7.06773C42.8969 7.15671 42.7174 7.22344 42.5379 7.22344C42.4931 7.22344 42.4258 7.22344 42.3585 7.2012C42.2911 7.2012 42.2463 7.15671 42.2014 7.11222C42.1565 7.06773 42.1116 7.00099 42.0668 6.93426C42.0219 6.84528 41.9995 6.73405 42.0219 6.62283V4.48731H43.57C43.6598 4.48731 43.7495 4.44282 43.8168 4.37609C43.8841 4.30935 43.929 4.24262 43.929 4.15364V3.24159C43.929 3.15261 43.8841 3.06363 43.8168 3.01914C43.7495 2.95241 43.6822 2.93016 43.5925 2.93016H42.0443V1.48424C42.0443 1.39526 42.0219 1.30628 41.9546 1.26179C41.8873 1.19505 41.82 1.17281 41.7302 1.17281H40.5411C40.4513 1.17281 40.3616 1.19505 40.3167 1.26179C40.2494 1.32852 40.227 1.4175 40.227 1.48424V2.95241H39.5539C39.4641 2.95241 39.3744 2.9969 39.3295 3.06363C39.2622 3.13037 39.2397 3.1971 39.2397 3.28608V4.19812C39.2397 4.2871 39.2622 4.35384 39.3295 4.42057C39.3744 4.48731 39.4641 4.5318 39.5539 4.5318H40.227V7.06773C40.227 7.37916 40.2718 7.66834 40.4065 7.93528C40.5186 8.15773 40.6757 8.35794 40.8552 8.51365C41.0347 8.66937 41.2591 8.78059 41.5059 8.84733C41.7527 8.91406 41.9995 8.95855 42.2463 8.95855C42.5828 8.95855 42.8969 8.91406 43.211 8.80284C43.5027 8.71386 43.772 8.5359 43.9739 8.33569C44.1085 8.20222 44.131 7.97977 44.0188 7.82406L43.6149 7.15671ZM50.1216 2.95241H48.9324C48.8427 2.95241 48.7754 2.9969 48.708 3.04139C48.6407 3.10812 48.6183 3.1971 48.6183 3.28608V3.41955C48.4612 3.24159 48.2818 3.10812 48.0798 3.01914C47.7657 2.86343 47.4067 2.79669 47.0477 2.79669C46.2849 2.79669 45.5669 3.10812 45.0284 3.642C44.7592 3.93119 44.5348 4.26486 44.3778 4.62078C44.1983 5.02119 44.131 5.46609 44.131 5.88874C44.131 6.33364 44.1983 6.7563 44.3778 7.17895C44.5348 7.53487 44.7592 7.86855 45.0284 8.15773C45.5669 8.69161 46.2849 9.00304 47.0477 9.00304C47.4067 9.00304 47.7657 8.93631 48.0798 8.78059C48.2818 8.66937 48.4837 8.5359 48.6183 8.38018V8.5359C48.6183 8.62488 48.6407 8.69161 48.708 8.75835C48.7754 8.82508 48.8427 8.84733 48.9324 8.84733H50.1216C50.3011 8.84733 50.4357 8.71386 50.4357 8.5359V3.28608C50.4357 3.1971 50.4132 3.13037 50.3459 3.06363C50.2786 2.97465 50.2113 2.95241 50.1216 2.95241ZM48.5061 6.42262C48.4388 6.57834 48.3491 6.73405 48.2369 6.86752C48.1023 6.97875 47.9676 7.08997 47.8106 7.17895C47.6535 7.24569 47.4516 7.29018 47.2721 7.29018C47.0926 7.29018 46.9131 7.24569 46.7561 7.17895C46.599 7.11222 46.4419 7.00099 46.3298 6.86752C46.2176 6.73405 46.1054 6.57834 46.0605 6.42262C45.9259 6.0667 45.9259 5.68854 46.0605 5.33262C46.1278 5.1769 46.2176 5.02119 46.3298 4.88772C46.4644 4.75425 46.599 4.66527 46.7561 4.57629C46.9131 4.50955 47.0926 4.46507 47.2721 4.46507C47.4516 4.46507 47.6311 4.50955 47.8106 4.57629C47.9676 4.64302 48.1023 4.75425 48.2369 4.86547C48.3491 4.99894 48.4612 5.13241 48.5061 5.31037C48.6632 5.68854 48.6632 6.08895 48.5061 6.42262ZM56.6282 7.06773L55.9551 6.55609C55.8205 6.44487 55.7083 6.42262 55.5961 6.46711C55.5064 6.5116 55.4166 6.57834 55.3493 6.64507C55.1923 6.82303 55.0352 6.97875 54.8333 7.11222C54.6314 7.22344 54.407 7.29018 54.1602 7.26793C53.8909 7.26793 53.6441 7.2012 53.4198 7.04548C53.1954 6.88977 53.0383 6.66732 52.9486 6.42262C52.8813 6.24466 52.8588 6.0667 52.8588 5.88874C52.8588 5.71078 52.8813 5.51058 52.9486 5.33262C53.0159 5.1769 53.1057 5.02119 53.2178 4.88772C53.3525 4.75425 53.4871 4.66527 53.6441 4.59854C53.8012 4.5318 54.0031 4.48731 54.1826 4.48731C54.407 4.48731 54.6538 4.5318 54.8333 4.64302C55.0352 4.77649 55.1923 4.93221 55.3493 5.11017C55.4166 5.1769 55.5064 5.24364 55.5961 5.28813C55.7083 5.33262 55.8205 5.31037 55.9551 5.19915L56.6282 4.68751C56.718 4.62078 56.7853 4.55405 56.8077 4.46507C56.8526 4.35384 56.8302 4.24262 56.7853 4.15364C56.516 3.75323 56.1571 3.41955 55.7308 3.17486C55.282 2.93016 54.7435 2.79669 54.1377 2.79669C53.7114 2.79669 53.2851 2.88567 52.9037 3.04139C52.5223 3.1971 52.1857 3.41955 51.8941 3.70873C51.6024 3.99792 51.378 4.33159 51.221 4.68751C50.9069 5.46609 50.9069 6.35589 51.221 7.13446C51.378 7.51263 51.6024 7.8463 51.8941 8.11324C52.4999 8.69161 53.2851 9.00304 54.1377 9.00304C54.7435 9.00304 55.282 8.86957 55.7308 8.62488C56.1571 8.38018 56.516 8.04651 56.7853 7.6461C56.8526 7.55712 56.8526 7.44589 56.8077 7.33467C56.7628 7.22344 56.6955 7.13446 56.6282 7.06773ZM62.9329 8.2912L61.0707 5.55507L62.6637 3.46404C62.731 3.37506 62.7535 3.24159 62.731 3.13037C62.7086 3.04139 62.6188 2.95241 62.4393 2.95241H61.1829C61.1156 2.95241 61.0483 2.97465 60.981 2.9969C60.8912 3.04139 60.8463 3.08588 60.8015 3.17486L59.5226 4.95445H59.2085V0.750151C59.2085 0.661171 59.186 0.594436 59.1187 0.527701C59.0514 0.460966 58.9841 0.438721 58.8943 0.438721H57.7052C57.6154 0.438721 57.5481 0.460966 57.4808 0.527701C57.4135 0.594436 57.3911 0.661171 57.3911 0.750151V8.49141C57.3911 8.58039 57.4359 8.66937 57.4808 8.71386C57.5481 8.78059 57.6154 8.80284 57.7052 8.80284H58.8943C58.9841 8.80284 59.0514 8.75835 59.1187 8.71386C59.186 8.64712 59.2085 8.58039 59.2085 8.49141V6.44487H59.545L60.9361 8.58039C61.0258 8.7361 61.1829 8.82508 61.3399 8.82508H62.6637C62.8656 8.82508 62.9554 8.7361 62.9778 8.64712C63.0227 8.5359 63.0003 8.40243 62.9329 8.2912ZM33.3613 2.95241H32.0375C31.9478 2.95241 31.8356 2.97465 31.7683 3.06363C31.701 3.13037 31.6561 3.1971 31.6561 3.28608L30.6689 6.88977H30.4221L29.3676 3.26384C29.3451 3.1971 29.3227 3.10812 29.2554 3.04139C29.1881 2.97465 29.0983 2.93016 29.0086 2.93016H27.6399C27.4604 2.93016 27.3483 2.9969 27.3034 3.10812C27.2585 3.21935 27.2585 3.33057 27.3034 3.41955L28.9861 8.51365C29.0086 8.58039 29.0535 8.66937 29.1208 8.71386C29.1881 8.78059 29.2778 8.80284 29.3676 8.80284H30.0855L30.0182 8.95855L29.8612 9.4257C29.8163 9.55917 29.7266 9.69264 29.5919 9.80386C29.4798 9.89284 29.3451 9.93733 29.1881 9.93733C29.0759 9.93733 28.9413 9.91509 28.8291 9.8706C28.7169 9.82611 28.6047 9.75937 28.515 9.69264C28.4252 9.6259 28.313 9.60366 28.2233 9.60366H28.2009C28.0662 9.60366 27.9541 9.67039 27.9092 9.78162L27.4829 10.4045C27.3034 10.6714 27.4156 10.8494 27.5278 10.9384C27.7521 11.1386 28.0214 11.2943 28.313 11.4055C28.6272 11.5167 28.9637 11.5612 29.3227 11.5612C29.9285 11.5612 30.4445 11.4055 30.826 11.0718C31.2298 10.7159 31.5215 10.2488 31.6786 9.73713L33.6306 3.4418C33.6754 3.33057 33.6754 3.21935 33.6306 3.10812C33.6306 3.01914 33.5408 2.95241 33.3613 2.95241Z" fill="#011B33"/>
</g>
<defs>
<clipPath id="clip0_2480_7860">
<rect width="62.9575" height="11.1225" fill="white" transform="translate(0.0424805 0.438721)"/>
</clipPath>
</defs>
</svg>
