<svg width="24" height="25" viewBox="0 0 24 25" fill="none" xmlns="http://www.w3.org/2000/svg">
<path d="M10.5 21.56C11.3284 21.56 12 20.8884 12 20.06C12 19.2316 11.3284 18.56 10.5 18.56C9.67157 18.56 9 19.2316 9 20.06C9 20.8884 9.67157 21.56 10.5 21.56Z" fill="#6BB244"/>
<path d="M17.5 21.56C18.3284 21.56 19 20.8884 19 20.06C19 19.2316 18.3284 18.56 17.5 18.56C16.6716 18.56 16 19.2316 16 20.06C16 20.8884 16.6716 21.56 17.5 21.56Z" fill="#6BB244"/>
<path d="M12.9998 13.56H14.9998V10.57H17.9898V8.57003H14.9998V5.59003H12.9998V8.57003H10.0098V10.57H12.9998V13.56Z" fill="#6BB244"/>
<path d="M10 17.56H18C18.2014 17.5594 18.398 17.498 18.564 17.3838C18.7299 17.2696 18.8575 17.1079 18.93 16.92L21.76 9.56H19.62L17.31 15.56H10.67L6.18 4.79C6.02776 4.42506 5.77077 4.11344 5.44149 3.89451C5.11221 3.67559 4.72542 3.55918 4.33 3.56H2V5.56H4.33L9.08 16.94C9.15502 17.1226 9.28242 17.2789 9.44614 17.3893C9.60986 17.4996 9.80257 17.559 10 17.56Z" fill="#6BB244"/>
</svg>
