<svg width="25" height="24" viewBox="0 0 25 24" fill="none" xmlns="http://www.w3.org/2000/svg">
<path d="M4.25 4.5C3.01625 4.5 2 5.51625 2 6.75V17.25C2 18.4838 3.01625 19.5 4.25 19.5H20.75C21.9837 19.5 23 18.4838 23 17.25V6.75C23 5.51625 21.9837 4.5 20.75 4.5H4.25ZM4.25 6H20.75C21.1745 6 21.5 6.3255 21.5 6.75V17.25C21.5 17.6745 21.1745 18 20.75 18H4.25C3.8255 18 3.5 17.6745 3.5 17.25V6.75C3.5 6.3255 3.8255 6 4.25 6ZM15.0545 9.28125C13.61 9.28125 12.8517 9.99375 12.8517 10.8983C12.8517 12.5332 14.7733 12.3082 14.7733 13.1483C14.7733 13.2922 14.6532 13.617 13.8597 13.617C13.0647 13.617 12.5472 13.3358 12.5472 13.3358L12.3125 14.4142C12.3125 14.4142 12.8045 14.7188 13.7892 14.7188C14.7732 14.7188 16.1562 13.9628 16.1562 12.867C16.1562 11.5485 14.234 11.4608 14.234 10.875C14.234 10.5765 14.489 10.3358 15.1715 10.3358C15.617 10.3358 16.109 10.6875 16.109 10.6875L16.3438 9.53925C16.3438 9.53925 15.6905 9.28125 15.0545 9.28125ZM8.891 9.375L7.625 13.0785C7.625 13.0785 7.5605 12.759 7.53125 12.5625C6.8165 10.9575 5.65625 10.359 5.65625 10.359L6.758 14.5545H8.258L10.367 9.375H8.891ZM10.9062 9.375L10.0858 14.5545H11.4688L12.2892 9.375H10.9062ZM18.3597 9.375L16.1097 14.5545H17.4688L17.75 13.8285H19.4847L19.625 14.5545H20.867L19.8125 9.375H18.3597ZM4.13225 9.39825C4.13225 9.39825 6.83075 10.2248 7.46075 12.258L6.992 9.91425C6.992 9.91425 6.78725 9.39825 6.242 9.39825H4.13225ZM18.875 10.875L19.2733 12.8205H18.1483L18.875 10.875Z" fill="#F0F7EC"/>
</svg>
